<svg width="1343" height="630" fill="none" xmlns="http://www.w3.org/2000/svg"><g opacity=".8" clip-path="url(#clip0)" stroke-width="1.5" stroke-miterlimit="10"><path d="M840 434v26M853 447h-26" stroke="#9CD6EC"/><path d="M94.226 584.658c-10.59-4.316-15.932-13.33-19.06-21.66-3.13-8.33-5.386-17.09-13.166-23.998" stroke="#E45865"/><path d="M712.351 67.028c4.736-15.108 20.22-23.945 35.132-29.638 14.912-5.692 30.939-10.276 41.576-22.038" stroke="#9CD6EC"/><path d="M649.305 678.222s52.59-3.452 42.195-33.468c-10.395-30.016-110.856-51.174-110.542-36.577.596 27.704 86.542-2.677 86.542-44.177" stroke="#62997E"/><path d="M1189-7.001c14.02-3.462 51-4.042 68.85 13.253 10.93 10.601 9.5 19.497 4.23 26.293-6.22 8.036-30.29 16.125-38.2-.069-6.76-13.863 25.07-24.444 54.17-.372 30.91 25.535 37.26 60.456 34.18 69.723" stroke="#F8D872"/><path d="M431.5 121a8.5 8.5 0 10-.001-17.001A8.5 8.5 0 00431.5 121zM1167.36 312v18.72M1176.72 321.36H1158" stroke="#D6EECC"/><path d="M1250.08 384.168a6.09 6.09 0 006.09-6.084 6.09 6.09 0 00-6.09-6.084 6.08 6.08 0 00-6.08 6.084 6.08 6.08 0 006.08 6.084z" stroke="#E45865"/><path d="M52.36 40v18.72M61.72 49.36H43" stroke="#F8D872"/></g><defs><clipPath id="clip0"><path fill="#fff" d="M0 0h1343v630H0z"/></clipPath></defs></svg>