<svg width="130" height="130" fill="none" xmlns="http://www.w3.org/2000/svg"><path d="M19.2 61.1s.8 16.7 3.1 18.3c3.9 2.6 14.8 1.9 20.4 1.5 2.4-.2 4.9.3 7.1 1.3 3.6 1.7 9.4 5.4 12.5 5.6 1.3.1 2.4-2.7 2.4-3.3-.3-3-7.9-8-11.6-10-1.1-.6-4.6-2-7.2-2.8-3.3-.9-2.9-7.6-2.7-8.1.6-1.6 9.3-9.2 9.3-9.2s5.4.8 5.9.9c.4.1 6.4 9 7.4 6.5.8-2 .8-8.7.8-11.4 0-.7-.4-1.3-1-1.6-3-1.7-11-6.1-11.4-6.1-1.2 0-13.3 5.1-13.3 5.1L19.2 61.1z" fill="#FFCBC1"/><path d="M41 50.1c.5-.4 1-.6 1.5-.8l10-4.1c1.6-.8 3.3 0 3.7.3 1.6 1 4.2 2.7 6 3.5 2.8 1.1 2.6-.1 2.6-.2-3-1.7-10.1-6.1-10.5-6.1-1.2 0-12.3 4.2-12.3 4.2L19.2 61.1s.1 1.1.3 2.7c0 0 6.6-3.1 8.7-4.4 3.5-2.1 12.8-9.3 12.8-9.3z" fill="#fff"/><path d="M21.2 60c5.1-2.5 16.7-10.5 19.9-12.7.5-.4 1.1-.7 1.8-.9L53 42.8c.9-.3 1.9-.1 2.7.3 2.5 1.4 7.9 4.5 8.9 5.3M44.7 71.4c2 1.1 5.4 1.9 7.5 2.7 4.9 1.8 10.3 5.4 12.7 10.1" stroke="#162D27" stroke-miterlimit="10" stroke-linecap="round" stroke-linejoin="round"/><path d="M67.6 48.1c-.7 2.5-3.5 10-2 12.4 1.7 2.7 3.3 2.7 5.3.1s3.2-7.1 3.4-7.1c.2 0 7.5.1 7.5.1l7.9 7.6c.7.8.9 1.9.4 2.8L84 75.9s-11.5 1-18.1 6.3c-1.1.9-2.2 5.6.5 5.7 2.7.1 14.4-4.9 17.9-3.6 3.5 1.3 9.5 4 13.3 3.7 3.8-.3 9.7-1.1 9.7-1.1s.9-4.4 2.3-9.5c1.5-5.3 2.3-10.7 2.2-11.3-.1-1.1-11.3-15-12.5-15.9-1.2-.8-19-9.1-20-9-1 .1-10.9 4.4-11.7 6.9z" fill="#FFCBC1"/><path d="M4.8 63.3S3.7 71 5.9 75.4c1 2.1-.9 9.1-.9 9.1 0 2.5 2.6 4.1 4.8 3l13.4-4.9-4.6-22.3-13.8 3z" fill="#95CFE5"/><path d="M125.3 67.6s1.6 8.6-1.2 15.4c-.5 1.3-.1 4.6.3 7.4.4 2.2-1.8 3.9-3.8 3.2l-13.8-5.2 5.8-25.2 12.7 4.4z" fill="#DD5865"/><path d="M112 65.6c-1.4-.9-11.5-14.6-12.7-15.4-1.2-.8-19.5-9.3-20.5-9.2-.7.1-6.6 2.7-10.2 5.5-1.4 1-2 5.1-2.3 5.8.6.1 2.4-4.1 3-4.4 4.1-2.2 8-4.4 10.1-4 2 .5 15.7 6.5 18.6 8.2 2.9 1.7 8.2 11.5 10.4 13.5.9.9 2.4 1.5 3.2 1.7.2-.6.5-1.6.4-1.7z" fill="#fff"/><path d="M22.4 79.4c.9.9 8.9 2.7 14.1 2 1.6-.2 3.2-.8 4.9-.9 3.1-.2 6.4.8 9.2 2 2.7 1.2 5.3 2.9 8.1 4.1 1 .4 3.5 1.7 5.3.2" stroke="#162D27" stroke-miterlimit="10" stroke-linecap="round" stroke-linejoin="round"/><path d="M5.2 62.8c4.3-.4 9.5-1.3 13.5-2.8.9 5 1.4 15.4 4.6 22.1L8.8 88M43.3 68.4s-1-4.2.8-6.4c1.8-2.1 8.8-7.5 8.8-7.5l5.8 1.1s3.4 6.1 6.5 6.4c2.5.2 0-6.6-1.2-9.5-.3-.8-.9-1.4-1.7-1.8-2.8-1.4-8.3-4.4-10-3.7-.6.3-10 6.8-13.1 8.8M90.8 50.5c-3.4-1.2-8.2-3.3-12-4.5-.9-.3-1.9-.2-2.7.3l-5.8 3.9c-.7.4-1.1 1.1-1.3 1.9-.6 2.9-2.2 9.9-2.2 9.9s3 1.2 4.4-1.2c1.1-1.8 2-4.8 2.3-6 .1-.4.5-1 .9-1.1.5-.2 4-.1 6 0 .9 0 1.7.4 2.3 1l6.8 6.4c.7.6 1.1 1.6.9 2.5-.3 1.7-3.9 8.6-6 11-1.1 1.3-2.6 2.1-4.2 2.3-2.3.3-6.9 1.1-9.8 2.5-5.2 2.4-6.8 6.9-5.1 8.4 1.7 1.5 13.4-3.9 18.9-3.2 4.8.6 8.6 3.4 11.4 3.6 3.3.2 11-.7 11-.7" stroke="#162D27" stroke-miterlimit="10" stroke-linecap="round" stroke-linejoin="round"/><path d="M66.1 51.7c.1-.3 1.4-4.8 2.1-5.2l8.5-4.8c1.2-.7 3.1-.8 4.3-.2 2.3 1.3 13 6 17.2 7.9 1.1.5 2.1 1.3 2.8 2.3l8.8 12.4M122.2 93.7l-15.7-4.9c0 .8 5.9-25.7 5.9-25.7l12.5 4.3" stroke="#162D27" stroke-miterlimit="10" stroke-linecap="round" stroke-linejoin="round"/><path d="M39.2 28.2v6.6M42.5 31.5h-6.7M93.9 103.5v5.5M96.6 106.2h-5.5" stroke="#DD5865" stroke-miterlimit="10" stroke-linecap="round" stroke-linejoin="round"/><path d="M49.7 23.7a2.1 2.1 0 100-4.2 2.1 2.1 0 000 4.2zM79.6 35.2c.3-1.9 2.1-3.2 3.9-4.1 1.7-.9 3.7-1.7 4.8-3.3" stroke="#95CFE5" stroke-miterlimit="10" stroke-linecap="round" stroke-linejoin="round"/><path d="M43.2 109.3a2.3 2.3 0 100-4.6 2.3 2.3 0 000 4.6z" stroke="#F1D172" stroke-miterlimit="10" stroke-linecap="round" stroke-linejoin="round"/><path d="M77.2 106.4s6.3-3.2 3.4-6.4c-2.9-3.1-16.4.8-13.5 3.7 3 3.1 10.2-8.7 2.6-10" stroke="#95CFE5" stroke-miterlimit="10" stroke-linecap="round" stroke-linejoin="round"/><path d="M93.3 23.8a2.2 2.2 0 100-4.4 2.2 2.2 0 000 4.4z" stroke="#F1D172" stroke-miterlimit="10" stroke-linecap="round" stroke-linejoin="round"/><path d="M55 93.6c-1.3-.2-2.4.9-2.8 2.1-.4 1.2-.4 2.5-.8 3.7-.4 1.2-1.4 2.4-2.7 2.3M68.1 36.8s2.8-2.8 1.7-5.6c-1.2-3.3-11.4 1.1-9.9 3.1 1.6 2.2 7.5-7.5 2-8.8" stroke="#CDE5BD" stroke-miterlimit="10" stroke-linecap="round" stroke-linejoin="round"/><path d="M9.6 87.2c.1-.2 10.9-6 10.9-6l.5-4.8 1.8 5.4-13.2 5.4zM108.1 83.5l.5 4.5 11.6 4.9-13.5-4.3 1.4-5.1zM64.9 53.9l3 3.2-1 3.9-2-7.1z" fill="#162D27"/></svg>