<svg width="376" height="356" fill="none" xmlns="http://www.w3.org/2000/svg"><circle cx="188.5" cy="178.5" r="174.5" fill="#F4EDE3" fill-opacity=".5"/><path d="M332.485 215.304v14.58M339.774 222.594h-14.58" stroke="#9CD6EC" stroke-width="1.5" stroke-miterlimit="10"/><path d="M291.514 70.237a4.689 4.689 0 100-9.378 4.689 4.689 0 000 9.378zM276.994 130.85a4.86 4.86 0 10.001-9.719 4.86 4.86 0 00-.001 9.719z" stroke="#62997E" stroke-width="1.5" stroke-miterlimit="10"/><path d="M351.347 134.771s22.142-11.041 12.18-22.143-57.36 2.054-47.459 12.479c10.27 10.804 35.843-29.877 9.387-34.991" stroke="#22594B" stroke-width="1.5" stroke-miterlimit="10"/><path d="M18.31 295.783c1.352-5.513 6.687-9.013 11.889-11.384 5.202-2.371 10.827-4.369 14.364-8.813" stroke="#E45865" stroke-width="1.5" stroke-miterlimit="10"/><path d="M260.43 100.541c1.352-5.506 6.688-9.014 11.89-11.384 5.202-2.37 10.827-4.37 14.364-8.814M53.592 117.179a4.689 4.689 0 100-9.378 4.689 4.689 0 000 9.378z" stroke="#9CD6EC" stroke-width="1.5" stroke-miterlimit="10"/><path d="M45.804 146.665s2.283-14.013-6.226-13.105c-8.51.908-18.314 27.398-10.146 26.276 8.469-1.141-1.879-26.723-13.125-16.144" stroke="#62997E" stroke-width="1.5" stroke-miterlimit="10"/><path d="M62.531 65.548c5.945 1.486 19.752 8.04 22.576 16.623 1.731 5.261-.743 7.743-4.176 8.88-4.058 1.346-14.729-.542-14.12-6.977.528-5.507 14.618-2.973 20.124 9.75 5.856 13.502.58 25.429-2.586 27.725" stroke="#F8D872" stroke-width="1.5" stroke-miterlimit="10"/><path d="M38.856 211.176a4.86 4.86 0 100-9.72 4.86 4.86 0 000 9.72zM103.537 28.058c-1.487 2.103-.364 5.113 1.486 6.91 1.85 1.8 4.25 2.884 6.138 4.616 1.887 1.731 3.21 4.6 1.969 6.844" stroke="#E45865" stroke-width="1.5" stroke-miterlimit="10"/><path d="M340.93 262.809H211" stroke="#162D27" stroke-width="1.25" stroke-miterlimit="10" stroke-linecap="round" stroke-linejoin="round"/><path d="M250.597 267.923L316.77 269l6.309-4.576c.939-.538 1.342-1.481 1.073-2.423l-3.087-12.651v-83.312c0-1.75-1.476-3.23-3.221-3.23L254.758 162c-1.611 0-2.819 1.211-2.819 2.826v85.062l-3.624 14.267c-.537 1.48.671 3.768 2.282 3.768z" fill="#CDE5BD"/><path d="M251.805 249.888v-85.062c0-1.615 1.342-2.826 2.818-2.826h3.759c-1.342.269-2.819 2.288-2.819 3.769.268 20.861 1.208 83.715 1.208 83.715 0 .269-.268 3.23-1.074 4.576-1.476 2.423-.939 4.846-1.208 7.672-.268 2.692-2.953 6.326-2.953 6.326h-.939c-1.745 0-3.356-1.884-2.953-3.634l4.161-14.536zM304.824 217.99l-38.523.404a2.697 2.697 0 01-2.685-2.692l-.134-38.493c0-1.481 1.208-2.692 2.55-2.692l38.792-.538a2.696 2.696 0 012.684 2.691v38.494c-.134 1.615-1.342 2.826-2.684 2.826z" fill="#fff"/><path d="M304.958 217.99l-38.791.404a2.552 2.552 0 01-2.551-2.557l-.134-38.628c0-1.346 1.074-2.557 2.416-2.557l38.926-.539a2.552 2.552 0 012.55 2.558v38.762c0 1.48-1.074 2.557-2.416 2.557z" stroke="#162D27" stroke-width="1.25" stroke-miterlimit="10" stroke-linecap="round" stroke-linejoin="round"/><path d="M321.065 206.146v-40.108c0-1.75-1.476-3.23-3.221-3.23L254.758 162c-1.611 0-2.819 1.211-2.819 2.826v85.062l-4.027 14.536c-.537 1.884 1.477 3.768 3.356 3.768l62.683.673c1.208 0 2.416.135 3.49-.403l5.772-3.904c.805-.403 1.208-1.345 1.073-2.288l-3.087-13.728v-38.628M317.978 251.772l-1.477 16.555" stroke="#162D27" stroke-width="1.25" stroke-miterlimit="10" stroke-linecap="round" stroke-linejoin="round"/><path d="M276.042 177.961l-8.187.113.112 8.209 8.187-.113-.112-8.209z" stroke="#162D27" stroke-width="1.25" stroke-miterlimit="10" stroke-linecap="round" stroke-linejoin="round"/><path d="M274.058 180.142l-4.026.055.055 4.038 4.026-.056-.055-4.037z" fill="#162D27"/><path d="M276.445 207.167l-8.187.112.112 8.209 8.187-.112-.112-8.209z" stroke="#162D27" stroke-width="1.25" stroke-miterlimit="10" stroke-linecap="round" stroke-linejoin="round"/><path d="M274.327 209.349l-4.027.056.056 4.037 4.026-.055-.055-4.038z" fill="#162D27"/><path d="M302.082 177.692l-8.186.112.112 8.209 8.187-.112-.113-8.209z" stroke="#162D27" stroke-width="1.25" stroke-miterlimit="10" stroke-linecap="round" stroke-linejoin="round"/><path d="M300.097 179.738l-4.027.055.056 4.038 4.026-.056-.055-4.037zM276.477 195.353l-3.49.048.048 3.499 3.49-.048-.048-3.499zM276.344 189.835l-3.49.048.048 3.499 3.489-.048-.047-3.499zM272.853 189.836l-3.489.048.047 3.499 3.49-.048-.048-3.499zM281.714 192.124l-3.49.048.048 3.499 3.489-.048-.047-3.499zM286.948 189.701l-3.49.048.048 3.499 3.49-.048-.048-3.499zM286.813 186.202l-3.489.048.048 3.499 3.489-.048-.048-3.499z" fill="#162D27"/><path d="M290.304 186.203l-3.49.048.048 3.499 3.49-.048-.048-3.499z" fill="#162D27"/><path d="M293.793 188.355l-3.49.048.048 3.499 3.489-.048-.047-3.499zM272.988 195.488l-3.489.048.048 3.499 3.489-.048-.048-3.499z" fill="#162D27"/><path d="M276.477 198.853l-3.489.048.048 3.499 3.489-.048-.048-3.499zM285.471 212.043l-3.489.048.048 3.499 3.489-.048-.048-3.499zM283.457 208.543l-3.489.048.047 3.499 3.49-.048-.048-3.499zM288.96 211.908l-3.49.048.048 3.499 3.49-.048-.048-3.499zM292.45 211.907l-3.489.048.048 3.499 3.489-.048-.048-3.499z" fill="#162D27"/><path d="M295.807 211.909l-3.49.048.048 3.499 3.49-.048-.048-3.499zM299.297 205.716l-3.49.048.048 3.499 3.49-.048-.048-3.499zM295.672 202.218l-3.49.048.048 3.499 3.49-.048-.048-3.499zM299.162 198.718l-3.49.048.048 3.499 3.49-.048-.048-3.499z" fill="#162D27"/><path d="M302.651 202.083l-3.49.048.048 3.499 3.49-.048-.048-3.499zM295.671 198.718l-3.489.048.048 3.499 3.489-.048-.048-3.499zM299.162 202.219l-3.489.048.047 3.499 3.49-.048-.048-3.499z" fill="#162D27"/><path d="M302.652 198.717l-3.489.048.048 3.499 3.489-.047-.048-3.5z" fill="#162D27"/><path d="M302.518 195.22l-3.49.048.048 3.499 3.49-.048-.048-3.499zM302.518 188.354l-3.489.048.048 3.499 3.489-.048-.048-3.499zM299.027 191.72l-3.49.048.048 3.499 3.49-.048-.048-3.499zM295.538 191.856l-3.489.048.048 3.499 3.489-.048-.048-3.499z" fill="#162D27"/><path d="M292.182 195.353l-3.489.048.048 3.499 3.489-.048-.048-3.499zM288.692 198.854l-3.489.048.048 3.499 3.489-.048-.048-3.499zM290.168 177.454l-3.489.048.048 3.499 3.489-.048-.048-3.499zM283.323 177.588l-3.49.048.048 3.499 3.49-.048-.048-3.499zM286.814 181.087l-3.489.048.047 3.499 3.49-.048-.048-3.499zM283.324 181.088l-3.49.048.048 3.499 3.489-.048-.047-3.499z" fill="#162D27"/><path d="M283.324 184.587l-3.49.048.048 3.499 3.49-.048-.048-3.499zM285.203 195.488l-3.489.048.048 3.499 3.489-.048-.048-3.499zM288.692 195.354l-3.49.048.048 3.499 3.49-.048-.048-3.499z" fill="#162D27"/><path d="M288.692 195.354l-3.49.048.048 3.499 3.49-.048-.048-3.499zM302.787 211.774l-3.49.048.048 3.499 3.489-.048-.047-3.499zM288.827 202.352l-3.49.048.048 3.499 3.49-.048-.048-3.499zM292.317 205.852l-3.489.048.047 3.499 3.49-.048-.048-3.499zM285.336 202.353l-3.489.048.048 3.499 3.489-.048-.048-3.499z" fill="#162D27"/><path d="M281.847 198.987l-3.489.048.047 3.499 3.49-.048-.048-3.499z" fill="#162D27"/><path d="M316.367 250.023H255.16M317.978 209.645v-39.704M317.441 248.677l-.134-12.383" stroke="#162D27" stroke-width="1.25" stroke-miterlimit="10" stroke-linecap="round" stroke-linejoin="round"/><path d="M318.515 251.772l1.342 14.94-2.684 1.75c-.403.269-.537-1.212-.537-1.75l1.879-14.94z" fill="#162D27"/><path d="M308.448 236.833H264.69a5.105 5.105 0 01-5.1-5.115 5.104 5.104 0 015.1-5.114h43.758c2.818 0 5.1 2.288 5.1 5.114-.134 2.827-2.416 5.115-5.1 5.115z" fill="#fff" stroke="#162D27" stroke-width="1.25" stroke-miterlimit="10" stroke-linecap="round" stroke-linejoin="round"/><path d="M66.151 322.98a2.928 2.928 0 002.9 3.377l96.89.643 7.355-5.284-107.145 1.264z" fill="#162D27"/><path d="M233.363 54.272l-38.481.257-.129.179a22.575 22.575 0 01-3.77 4.049 6.587 6.587 0 01-4.87 1.806l-4.812-.05-10.711.229c-2.649 0-4.763-.593-5.777-1.55l-.621-.714-2.271-2.735a2.736 2.736 0 00-2.142-.964l-27.584.172a3.354 3.354 0 00-3.228 2.542L67.172 305.186a2.855 2.855 0 002.743 3.513l100.96.25c2.821-.836 5.17-2.857 5.127-4.706L235.64 57.122a2.322 2.322 0 00-.45-1.975 2.323 2.323 0 00-1.827-.875z" fill="#fff"/><path d="M233.363 54.272l-38.481.257-.128.179h-.257l-2.857 3.178a4.695 4.695 0 01-.657.87 6.295 6.295 0 01-3.656 1.629l-6.026.128-12.418-.128a5.932 5.932 0 01-4.67-1.921l-2.292-2.72a2.741 2.741 0 00-2.142-.965l-27.584.172a3.35 3.35 0 00-3.185 2.413l-5.127 22.479 107.823-.357 4.242-22.493c.371-1.535-1.086-2.728-2.585-2.72z" fill="#D6EECC"/><path d="M250.778 49.674c-2.677-4.106-7.276-3.749-12.574-3.927l-105.459 1.428a12.249 12.249 0 00-11.897 9.347L58.682 309.827c-2.056 8.419 2.464 13.21 8.683 13.21l107.588.207c9.996 0 12.503-5.591 14.102-12.46l61.452-249.642c.964-4.113 1.957-8.883.271-11.468zM175.752 304.95c-.464 1.999-3.113 3.784-6.733 4.034l-92.485-.192H70.65a2.87 2.87 0 01-1.922-1.232 2.852 2.852 0 01-.406-2.246l60.695-247.778a.96.96 0 01.043-.129 3.347 3.347 0 013.185-2.413l27.534-.215a2.74 2.74 0 012.142.964l2.321 2.721a5.932 5.932 0 004.67 1.92l12.417.13 6.027-.13c2.542-.663 4.777-2.855 5.919-4.212a6.364 6.364 0 012.214-1.642l37.902-.258c1.5 0 2.935 1.257 2.599 2.721l-5.826 25.47-54.412 222.487z" fill="#fff"/><path d="M250.778 49.674c-2.678-4.106-7.276-3.749-12.575-3.927L135.5 47.175a12.254 12.254 0 00-11.896 9.347L61.438 309.827c-2.056 8.419 2.47 13.21 8.69 13.21l105.052.207c9.997 0 12.504-5.591 14.103-12.46l61.224-249.642c.963-4.113 1.956-8.883.271-11.468zm-75.026 255.162c-.464 1.999-3.114 3.791-6.734 4.041l-92.485-.193H70.65a2.851 2.851 0 01-2.359-2.312c-.07-.386-.059-.783.032-1.165l60.695-247.821a.862.862 0 01.042-.122 3.341 3.341 0 013.185-2.413l27.534-.143a2.733 2.733 0 012.142.957l2.321 2.72a5.912 5.912 0 004.67 1.928l12.418.129 6.026-.129c2.542-.664 4.777-2.892 5.92-4.22a6.343 6.343 0 012.206-1.635l37.902-.186c1.5 0 2.899 1.307 2.6 2.65l-5.827 25.47-54.404 222.444z" fill="#62997E"/><path d="M183.171 321.373c3.149-3.299 4.513-3.749 6.113-10.618l61.223-249.613c.964-4.113 1.957-8.883.272-11.468-2.678-4.106-7.277-3.749-12.575-3.927l5.52 1.206c1.499 0 4.106 3.57 3.806 4.884L240.125 83 210.977 197.77l-26.756 110.857c-.464 2-.714 4.235-3.106 6.934l2.056 5.812z" fill="#22594B"/><path d="M179.098 56.672c1.076-.596 1.577-1.75 1.118-2.579-.459-.828-1.703-1.015-2.779-.42-1.076.597-1.577 1.752-1.118 2.58.458.828 1.703 1.015 2.779.419z" stroke="#162D27" stroke-width="1.372" stroke-linecap="round" stroke-linejoin="round"/><path d="M190.983 58.757a6.298 6.298 0 01-3.656 1.628l-6.027.128 4.813.05a6.594 6.594 0 004.87-1.806z" fill="#fff"/><path d="M212.862 97.244c-1 0-5.513 2.371-5.513 2.371s1.15-3.692.628-4.106a5.907 5.907 0 01-2.185-4.912c0-3.67 3.164-6.648 7.07-6.648s7.076 2.977 7.076 6.648a6.743 6.743 0 01-5.327 6.426" fill="#D6EECC"/><path d="M165.791 264.127h-64.565c-3.399 0-6.17-3.206-5.313-6.498l14.11-58.553a5.167 5.167 0 015.156-3.699h65.129a5.194 5.194 0 014.105 2.006 5.19 5.19 0 01.936 4.471l-14.145 57.217c-.586 2.321-3.035 5.056-5.413 5.056z" fill="#F8D872"/><path d="M182.807 175.17l-60.752-.415a5.204 5.204 0 01-4.998-6.512l15.145-58.381a5.218 5.218 0 015.041-3.899l64.744.3a5.084 5.084 0 014.027 2.064 5.093 5.093 0 01.793 4.455l-14.181 58.76c-.586 2.307-1.429 4.163-9.819 3.628z" fill="#E45865"/><path d="M142.142 148.364c-.55-.379.964-13.789 5.827-21.458 3.991-6.305 12.574-8.083 19.143-7.969 3.999.065 13.568-.499 19.816 8.362 6.248 8.861 4.998 22.814 4.998 22.814a97.231 97.231 0 01-17.487 3.456c-10.875 1.128-24.114.471-32.297-5.205z" fill="#EBF5F0"/><path d="M177.887 153.091s-13.353 1.271-17.73.714c-4.641-.571-13.981-3.306-13.981-3.306s-4.285-1.957-4.285-2.142c-2.206.278-18.272 2.363-18.522 4.334-.264 2.142 2.142 3.042 10.261 5.713 8.119 2.67 23.142 5.505 30.504 4.762 11.19-1.121 15.667-6.312 16.167-10.282l-2.414.207z" fill="#EBF5F0"/><path d="M179.858 154.547a7.067 7.067 0 00.428-1.656l-2.37-.279v.479s-14.81 1.428-19.18.921c-2.856-.35-8.676-2.328-12.66-3.778 2.642 1.014 12.196 4.599 16.173 5.092 3.478.428 13.703-.429 17.609-.779z" fill="#EBF5F0"/><path d="M126.868 154.033c.228-1.842 14.281-3.784 17.93-4.284-1.778-.657-2.963-1.121-2.963-1.121l.042-.264c-2.206.278-18.272 2.363-18.522 4.334-.222 1.757 1.428 2.699 6.633 4.484-2.456-1.021-3.284-1.87-3.12-3.149z" fill="#fff"/><path d="M145.348 149.999l.043-.264-.593.071 1.249.457-.699-.264z" fill="#EBF5F0"/><path d="M177.274 136.875c-.872-5.584-3.035-10.711-5.356-12.404-4.598-3.334-18.48-8.126-26.334 6.334-1.229 2.271-3.385 15.574-3.706 17.587l-.043.265s12.232 4.791 16.873 5.355c4.37.543 19.18-.921 19.18-.921v-.479a82.392 82.392 0 00-.614-15.737z" fill="#fff"/><path d="M146.404 142.266a11.022 11.022 0 014.006-4.935c1.285-.871 3.013-1.428 4.363-.714 1.35.714 1.892 2.607 3.342 3.121 1.285.45 2.62-.357 3.841-.964a14.67 14.67 0 018.79-1.378" stroke="#162D27" stroke-width="1.372" stroke-linecap="round" stroke-linejoin="round"/><path d="M165.42 118.795s-.4-1.6 2.32-1.957c1.871-.25 3.571.714 2.921 2.142" fill="#EBF5F0"/><path d="M142.142 148.364c-.578-.336.964-13.789 5.827-21.458 3.991-6.305 12.574-8.083 19.144-7.969 3.998.065 13.567-.499 19.815 8.362 6.248 8.861 4.998 22.814 4.998 22.814s-29.476 9.918-49.784-1.749z" stroke="#162D27" stroke-width="1.372" stroke-linecap="round" stroke-linejoin="round"/><path d="M142.142 148.364s-18.002 2.078-18.787 4.363c-.714 2.013 2.142 3.042 10.261 5.712 8.119 2.671 23.142 5.506 30.504 4.763 11.19-1.121 15.281-6.427 15.817-8.697M159.322 120.722s9.383-.756 14.053 5.156c6.062 7.669 4.513 27.213 4.513 27.213M165.42 118.795s-.4-1.6 2.32-1.957c1.871-.25 3.571.714 2.921 2.142M162.271 161.567a22.266 22.266 0 007.619-.993" stroke="#162D27" stroke-width="1.372" stroke-linecap="round" stroke-linejoin="round"/><path d="M125.654 153.248c6.505 3.442 13.81 5.056 21.05 6.427 2.457.464 4.934.907 7.412 1.242" stroke="#162D27" stroke-width="1.372" stroke-linecap="round" stroke-linejoin="round"/><path d="M187.684 175.112h-65.272a5.201 5.201 0 01-5.061-4.168 5.213 5.213 0 01.062-2.344l14.282-58.395a5.217 5.217 0 015.041-3.899h65.151a5.2 5.2 0 015.096 4.137 5.193 5.193 0 01-.048 2.346l-14.174 58.396a5.204 5.204 0 01-5.077 3.927zM100.662 263.72a6.548 6.548 0 01-1.706-.214c-2.57-.714-3.95-2.935-3.192-5.863l14.238-58.51a5.082 5.082 0 014.999-3.834l65.336.043a5.193 5.193 0 015.09 4.132 5.184 5.184 0 01-.049 2.344l-13.967 56.975a7.004 7.004 0 01-6.805 5.334l-63.944-.407z" stroke="#162D27" stroke-width="1.372" stroke-linecap="round" stroke-linejoin="round"/><path d="M236.126 57.293L176.102 303.9a6.427 6.427 0 01-6.27 4.999H76.234m-6.905-7.798l59.745-244.015a2.57 2.57 0 012.478-1.95l27.848-.178a3.492 3.492 0 012.642 1.185l2.142 2.442a5.513 5.513 0 004.149 1.886h17.095a8.9 8.9 0 006.662-3.007l1.428-1.585a3.495 3.495 0 012.592-1.178l37.038-.264m5.056-8.69l-105.46 1.428a12.246 12.246 0 00-11.896 9.347L58.261 311.44c-1.471 6.048 2.47 11.639 8.69 11.639l107.551.264c10.354 0 13.189-5.919 14.789-12.796l60.83-247.6c.621-2.535 1.25-5.462 1.707-7.669a7.393 7.393 0 00-2.506-7.283 4.521 4.521 0 00-1.314-.779l-9.804-1.47zM149.546 79.9l72.713-1.071" stroke="#162D27" stroke-width="1.372" stroke-linecap="round" stroke-linejoin="round"/><path d="M129.967 204.403c-.264.064-4.799 3.571-10.397 7.898-4.877 3.756-7.083 5.819-7.083 5.819s1.963 4.87 2.856 5.956c1.021 1.242 3.863 5.141 3.863 5.141l7.226-5.22-7.283 28.669 7.305.872 16.594.464 6.92.864a1.384 1.384 0 001.542-1.271l1.971-29.441 4.063 6.519 10.168-8.161s-11.111-15.06-13.017-15.874c-.579-.243.178-.899-11.611-2.585-4.241-.614-10.168-.414-13.117.35z" fill="#9CD6EC"/><path d="M127.432 220.619l-4.049 13.746-4.399 18.209 1.721.278 3.928-18.43 2.799-13.803zM132.98 205.189c2.764-1.271 17.316.093 17.316.093a31.133 31.133 0 00-7.212-1.236c-4.284-.221-9.925-.771-13.181.607-.25.107-4.735 3.335-10.333 7.648-4.877 3.756-7.083 5.819-7.083 5.819s.25.65.857 2.021c.649-.585 2.542-2.256 6.562-5.355 5.598-4.313 9.011-7.719 13.074-9.597z" fill="#fff"/><path d="M127.446 221.148c-3.57 9.59-6.234 21.371-8.305 31.383 10.097 2.185 20.587-.186 30.584 2.142.528.121 1.199.2 1.506-.25.119-.219.176-.466.165-.714.714-9.911 1.428-20.708 2.142-30.648" stroke="#162D27" stroke-width="1.372" stroke-linecap="round" stroke-linejoin="round"/><path d="M153.481 224.012a34.567 34.567 0 003.877 6.54c.186.265 7.526-5.848 10.475-7.854-2.356-3.792-10.811-14.524-13.253-15.931-4.42-2.542-9.532-2.528-12.66-2.856-8.34-.836-11.589-.043-14.574 2.313-6.905 5.463-9.854 7.219-14.909 12.089 1.428 3.985 6.562 11.011 6.562 11.011s5.455-3.777 7.705-6.348" stroke="#162D27" stroke-width="1.372" stroke-linecap="round" stroke-linejoin="round"/><path d="M134.158 205.196c1.564 1.093 6.034 3.77 6.034 3.77s4.284-1.228 6.69-2.142M132.23 206.767c.714 2.642 3.328 6.234 3.735 6.234a15.352 15.352 0 003.513-2.964M141.057 210.108c.428.9 1.628 3.078 1.856 3.135a.812.812 0 00.55-.136 45.393 45.393 0 007.255-4.677M139.664 212.715c-1.085 11.932-5.948 39.037-5.948 39.037" stroke="#162D27" stroke-width="1.372" stroke-linecap="round" stroke-linejoin="round"/><path d="M141.331 82.795c3.587-1.987 5.256-5.836 3.727-8.596-1.529-2.76-5.677-3.385-9.265-1.397-3.587 1.988-5.256 5.836-3.727 8.596 1.529 2.76 5.677 3.385 9.265 1.397z" fill="#FFCBC1"/><path d="M141.331 82.795c3.587-1.987 5.256-5.836 3.727-8.596-1.529-2.76-5.677-3.385-9.265-1.397-3.587 1.988-5.256 5.836-3.727 8.596 1.529 2.76 5.677 3.385 9.265 1.397zM212.862 97.244c-1 0-5.513 2.371-5.513 2.371s1.15-3.692.628-4.106a5.907 5.907 0 01-2.185-4.912c0-3.67 3.164-6.648 7.07-6.648s7.076 2.977 7.076 6.648a6.743 6.743 0 01-5.327 6.426" stroke="#162D27" stroke-width="1.372" stroke-linecap="round" stroke-linejoin="round"/><path d="M211.077 87.12c-.614.385-1.807.799-1.628 2.405.178 1.607 2.434 4.706 3.527 4.999 1.542.378 2.97-.222 3.278-1.157.307-.935-.757-1.385-1.222-1.342-.192 0-1.142 1.185-1.877.67-.736-.513-2.143-2.72-1.743-3.212.4-.493.936-.315 1.071-.936.136-.621-.757-1.835-1.406-1.428z" fill="#162D27"/><path d="M128.36 181.153l37.845-.092M121.891 187.266l21.586-.015M96.227 271.482l44.365.535M94.713 278.173l21.779.092M211.369 196.591l35.86-141.669a9.576 9.576 0 00.3-3.085 5.418 5.418 0 00-3.806-4.884M188.341 293.168s-4.684 17.766-5.084 18.922c-1.521 4.37-5.898 5.177-10.982 5.27l-108.18-.357M204.408 225.154l-1.964 8.304" stroke="#162D27" stroke-width="1.372" stroke-linecap="round" stroke-linejoin="round"/></svg>