<svg width="307" height="155" fill="none" xmlns="http://www.w3.org/2000/svg"><path d="M234.311 132.316h-75.112c-.697 0-1.22-.523-1.22-1.22v-84c0-.697.523-1.22 1.22-1.22h75.112c.697 0 1.22.523 1.22 1.22v84c.087.61-.523 1.22-1.22 1.22z" fill="#fff"/><path d="M235.618 101.469h-77.551V47.357c0-.784.697-1.481 1.481-1.481h74.589c.784 0 1.481.697 1.481 1.481v54.112z" fill="#FFE5DF"/><path d="M234.05 132.315h-74.502a1.562 1.562 0 01-1.569-1.568v-83.39c0-.872.697-1.569 1.569-1.569h74.502c.871 0 1.568.697 1.568 1.569v83.39c0 .871-.697 1.568-1.568 1.568z" stroke="#162D27" stroke-width="1.5" stroke-miterlimit="10" stroke-linecap="round" stroke-linejoin="round"/><path d="M164.514 107.568h59.951M164.514 113.668h42.697" stroke="#162D27" stroke-width="1.5" stroke-miterlimit="10"/><path d="M170.701 122.817h15.423M167.739 121.51c0-.958-2.615-1.307-2.615.087 0 1.569 2.789.784 2.789 2.266 0 1.83-3.05 1.743-3.05.261M166.432 119.419v6.709" stroke="#D6EECC" stroke-width="1.5" stroke-miterlimit="10"/><path d="M138.722 132.316H63.61c-.697 0-1.22-.523-1.22-1.22v-84c0-.697.523-1.22 1.22-1.22h75.112c.697 0 1.22.523 1.22 1.22v84c0 .61-.523 1.22-1.22 1.22z" fill="#fff"/><path d="M139.942 101.469H62.39V47.357c0-.784.697-1.481 1.481-1.481h74.59c.784 0 1.481.697 1.481 1.481v54.112z" fill="#D6EECC"/><path d="M138.461 132.315H63.958a1.562 1.562 0 01-1.568-1.568v-83.39c0-.872.697-1.569 1.569-1.569h74.502c.871 0 1.568.697 1.568 1.569v83.39c-.087.871-.784 1.568-1.568 1.568z" stroke="#162D27" stroke-width="1.5" stroke-miterlimit="10" stroke-linecap="round" stroke-linejoin="round"/><path d="M68.925 107.568h59.95M68.925 113.668h42.61" stroke="#162D27" stroke-width="1.5" stroke-miterlimit="10"/><path d="M75.112 122.817h15.336M72.15 121.51c0-.958-2.615-1.307-2.615.087 0 1.569 2.789.784 2.789 2.266 0 1.83-3.05 1.743-3.05.261M70.842 119.419v6.709" stroke="#D6EECC" stroke-width="1.5" stroke-miterlimit="10"/><path d="M110.664 57.29H91.755l-9.498 16.382 9.498 16.382h18.909l9.411-16.382-9.411-16.381z" fill="#62997E"/><path d="M197.888 53.37l6.535 13.331 14.814 2.178-10.718 10.37 2.527 14.726-13.158-6.971-13.245 6.971 2.527-14.726-10.631-10.37 14.727-2.178 6.622-13.332z" fill="#E45865"/><path d="M235.618 42.041l3.311-3.485c.959-.959 2.615-.436 2.789.871l.61 4.706 4.705-.872c1.307-.261 2.353 1.133 1.743 2.353l-2.266 4.183 4.357 2.09c1.22.61 1.22 2.354 0 2.877l-4.357 2.09 2.266 4.183c.61 1.22-.349 2.614-1.743 2.353l-4.705-.871-.61 4.705c-.174 1.307-1.83 1.917-2.789.871l-3.311-3.485-3.311 3.485c-.958.959-2.614.436-2.788-.871l-.61-4.705-4.706.871c-1.307.261-2.352-1.133-1.742-2.353l2.265-4.182-4.357-2.091c-1.22-.61-1.22-2.353 0-2.876l4.357-2.091-2.265-4.183c-.61-1.22.348-2.614 1.742-2.353l4.706.872.61-4.706c.174-1.307 1.83-1.917 2.788-.871l3.311 3.486z" fill="#62997E"/><path d="M25.485 137.706v8.8M29.93 142.15h-8.802" stroke="#F8D872" stroke-width="1.5" stroke-miterlimit="10"/><path d="M57.008 154.141a2.788 2.788 0 100-5.576 2.788 2.788 0 000 5.576z" stroke="#9CD6EC" stroke-width="1.5" stroke-miterlimit="10"/><path d="M9.8 94.834s-12.198 5.402-7.057 11.589c5.054 6.187 30.933.349 25.792-5.577-5.228-6.1-20.041 15.162-5.925 18.561" stroke="#D6EECC" stroke-width="1.5" stroke-miterlimit="10"/><path d="M281.236 62.544s5.839 11.85 11.851 6.535c6.012-5.315-.871-30.585-6.535-25.357-5.838 5.403 15.859 19.257 18.734 5.141" stroke="#62997E" stroke-width="1.5" stroke-miterlimit="10"/><path d="M250.498 0v10.456M255.726 5.228H245.27" stroke="#F8D872" stroke-width="1.5" stroke-miterlimit="10"/><path d="M281.585 17.863a3.398 3.398 0 100-6.796 3.398 3.398 0 000 6.796z" stroke="#E45865" stroke-width="1.5" stroke-miterlimit="10"/></svg>