<svg width="376" height="354" fill="none" xmlns="http://www.w3.org/2000/svg"><g clip-path="url(#clip0)"><circle cx="188.5" cy="178.5" r="174.5" fill="#F4EDE3" fill-opacity=".5"/><path d="M236 23v14M243 30.036h-14" stroke="#E45865" stroke-miterlimit="10"/><path d="M128.646 62.088c-4.478-4.184-13.372-16.613-11.678-25.488 1.038-5.44 4.406-6.41 7.96-5.74 4.2.793 12.616 7.62 8.962 12.951-3.133 4.56-14.224-4.49-12.868-18.287 1.429-14.648 11.829-22.518 15.711-22.99M54.84 58.412a4.92 4.92 0 10-9.838-.207 4.92 4.92 0 009.839.207z" stroke="#62997E" stroke-miterlimit="10"/><path d="M76.25 119.148l13.997.295M83.432 112.298l-.296 13.997" stroke="#F8D872" stroke-miterlimit="10"/><path d="M258.523 339.395a4.218 4.218 0 10-8.434-.178 4.218 4.218 0 008.434.178z" stroke="#9CD6EC" stroke-miterlimit="10"/><path d="M127.24 305.514s7.067 16.79 15.648 10.018c8.58-6.772 1.282-42.237-6.829-35.456-8.429 7.01 20.194 27.77 25.208 8.579" stroke="#E45865" stroke-miterlimit="10"/><path d="M97.907 129.063l50.059 19.146" stroke="#9CD6EC" stroke-width="1.996" stroke-miterlimit="10" stroke-linecap="round" stroke-linejoin="round"/><path d="M247.206 164.017l29.333-36.359" stroke="#E45865" stroke-width="1.996" stroke-miterlimit="10" stroke-linecap="round" stroke-linejoin="round"/><path d="M109.851 237.613l39.344-20.375" stroke="#F8D872" stroke-width="1.996" stroke-miterlimit="10" stroke-linecap="round" stroke-linejoin="round"/><path d="M235.965 183.865l52.167-7.202" stroke="#9CD6EC" stroke-width="1.996" stroke-miterlimit="10" stroke-linecap="round" stroke-linejoin="round"/><path d="M227.885 210.212l58.842 25.469" stroke="#D6EECC" stroke-width="1.996" stroke-miterlimit="10" stroke-linecap="round" stroke-linejoin="round"/><path d="M164.125 96.92l12.295 35.129" stroke="#F8D872" stroke-width="1.996" stroke-miterlimit="10" stroke-linecap="round" stroke-linejoin="round"/><path d="M196.269 221.98l13.524 40.048" stroke="#D6EECC" stroke-width="1.996" stroke-miterlimit="10" stroke-linecap="round" stroke-linejoin="round"/><path d="M191.351 242.355c35.407 0 64.111-28.703 64.111-64.111 0-35.407-28.704-64.111-64.111-64.111-35.408 0-64.111 28.704-64.111 64.111 0 35.408 28.703 64.111 64.111 64.111z" fill="#B6E1F3"/><path d="M191.351 242.355c35.407 0 64.111-28.703 64.111-64.111 0-35.407-28.704-64.111-64.111-64.111-35.408 0-64.111 28.704-64.111 64.111 0 35.408 28.703 64.111 64.111 64.111z" fill="#B6E1F3" stroke="#162D27" stroke-width="1.996" stroke-miterlimit="10" stroke-linecap="round" stroke-linejoin="round"/><path d="M161.315 101.311c9.215 0 16.686-7.47 16.686-16.686 0-9.216-7.471-16.687-16.686-16.687-9.216 0-16.687 7.471-16.687 16.687 0 9.215 7.471 16.686 16.687 16.686zM304.115 174.731c0 6.675-5.445 12.12-12.119 12.12-6.675 0-12.12-5.445-12.12-12.12 0-6.674 5.445-12.119 12.12-12.119 6.674 0 12.119 5.445 12.119 12.119zM223.143 267.121c0 6.675-5.446 12.12-12.12 12.12-6.675 0-12.12-5.445-12.12-12.12 0-6.674 5.445-12.119 12.12-12.119 6.674 0 12.12 5.445 12.12 12.119z" fill="#FFE5DF"/><path d="M126.453 252.319c5.283-22.375-8.572-44.796-30.946-50.079-22.375-5.283-44.796 8.572-50.08 30.946-5.282 22.375 8.573 44.796 30.947 50.079 22.375 5.283 44.796-8.572 50.079-30.946z" fill="#D6EECC"/><path d="M126.453 252.319c5.283-22.375-8.572-44.796-30.946-50.079-22.375-5.283-44.796 8.572-50.08 30.946-5.282 22.375 8.573 44.796 30.947 50.079 22.375 5.283 44.796-8.572 50.079-30.946z" stroke="#162D27" stroke-width="1.996" stroke-miterlimit="10" stroke-linecap="round" stroke-linejoin="round"/><path d="M312.937 137.188c16.051-16.051 16.051-42.074 0-58.125-16.051-16.051-42.074-16.051-58.125 0-16.051 16.05-16.051 42.074 0 58.125 16.051 16.051 42.074 16.051 58.125 0z" fill="#EBF5F0"/><path d="M312.937 137.188c16.051-16.051 16.051-42.074 0-58.125-16.051-16.051-42.074-16.051-58.125 0-16.051 16.05-16.051 42.074 0 58.125 16.051 16.051 42.074 16.051 58.125 0z" stroke="#162D27" stroke-width="1.996" stroke-miterlimit="10" stroke-linecap="round" stroke-linejoin="round"/><path d="M295.86 289.253c23.961 0 43.385-19.424 43.385-43.385s-19.424-43.385-43.385-43.385-43.385 19.424-43.385 43.385 19.424 43.385 43.385 43.385z" fill="#E5D9C7"/><path d="M295.86 289.253c23.961 0 43.385-19.424 43.385-43.385s-19.424-43.385-43.385-43.385-43.385 19.424-43.385 43.385 19.424 43.385 43.385 43.385z" stroke="#162D27" stroke-width="1.996" stroke-miterlimit="10" stroke-linecap="round" stroke-linejoin="round"/><path d="M113.138 147.48c15.228-15.228 15.228-39.917 0-55.145-15.228-15.228-39.917-15.228-55.145 0-15.227 15.228-15.227 39.917 0 55.145 15.228 15.228 39.917 15.228 55.145 0z" fill="#FDF3D2"/><path d="M85.611 159.099c21.536 0 38.994-17.458 38.994-38.994 0-21.535-17.458-38.993-38.994-38.993-21.535 0-38.993 17.458-38.993 38.993 0 21.536 17.458 38.994 38.993 38.994z" fill="#FDF3D2" stroke="#162D27" stroke-width="1.996" stroke-miterlimit="10" stroke-linecap="round" stroke-linejoin="round"/><path d="M286.375 80.936h5.27c4.04 0 7.904 1.757 10.89 4.567l10.714 9.133-10.539 12.823-4.04-3.338v28.28c0 1.053-.878 1.756-1.756 1.756h-10.89 2.81-18.618c-1.054 0-1.757-.878-1.757-1.756v-28.455l-3.513 4.215-10.714-12.998 10.539-9.66c2.986-2.81 6.85-4.391 10.89-4.567h10.714z" fill="#F8D872"/><path d="M276.89 82.693h14.052c3.689 0 10.363 2.459 12.647 4.566 0 0-4.216-6.323-11.066-6.323H275.836c-4.039 0-7.904 1.757-10.89 4.567l-10.714 9.66 2.283 2.284 11.066-10.363c2.635-2.986 5.269-4.216 9.309-4.391z" fill="#fff"/><path d="M270.391 133.981c-1.053 0-1.756-.878-1.756-1.756v-28.279l-3.513 4.215-10.363-12.822" stroke="#162D27" stroke-width="1.697" stroke-miterlimit="10" stroke-linecap="round" stroke-linejoin="round"/><path d="M255.988 93.758l8.783-8.255c2.986-2.81 6.85-4.391 10.89-4.567h15.632c4.04 0 7.904 1.757 10.89 4.567l10.715 9.31-10.188 12.997-4.215-3.864v28.279c0 1.054-.878 1.756-1.757 1.756h-10.89 2.811-14.93" stroke="#162D27" stroke-width="1.697" stroke-miterlimit="10" stroke-linecap="round" stroke-linejoin="round"/><path d="M276.188 83.922c1.58 2.81 4.742 4.567 8.079 4.567 3.162 0 6.148-1.581 7.729-4.04M268.459 99.906v5.972M298.846 99.906v5.796M276.715 102.541c1.054-1.406 2.107-2.81 3.688-3.689 1.581-.878 3.513-1.054 4.918-.176 1.581.879 2.284 2.986 1.933 4.743-.352 1.756-1.406 3.337-2.635 4.742-.703.703-1.581 1.405-2.635 1.581-.176 0-.351.176-.702 0-.527-.176-.352-.878-.176-1.405.702-1.405 1.756-2.635 3.162-3.162.878-.351 1.932-.527 2.634.176.878.703.703 2.283.352 3.513-.527 1.405-1.406 2.635-2.46 3.688M282.335 83.57h4.391" stroke="#162D27" stroke-width="1.697" stroke-miterlimit="10" stroke-linecap="round" stroke-linejoin="round"/><path d="M263.365 105.702l4.567-5.269v4.04l-3.161 3.161-1.406-1.932zM299.549 100.96l5.62 4.742-1.932 1.757-4.04-3.338.352-3.161z" fill="#162D27"/><path d="M301.832 229.533l.527-.527-.527.527zM304.642 227.777c.176 0 .352-.176.527-.176-.175 0-.351.176-.527.176zM302.535 229.006l.527-.527-.527.527z" fill="#fff"/><path d="M301.656 229.709c.176-.176.176-.176 0 0 .176-.176.176-.176 0 0z" fill="#E45865"/><path d="M203.821 161.031l-1.405-12.822c-.176-2.108-1.756-3.689-3.864-3.689h-34.076c-2.81 0-5.269.703-5.445 3.513-.175 2.459-1.229 2.986-1.58 4.391-.352 1.581 1.229 2.459 2.107 2.459 0 0 .703.176 1.932.176-2.634 17.389-6.85 49.005-6.85 49.005-.351 2.284 2.108 4.567 4.391 4.567h46.898l-2.108-47.6z" fill="#E5D9C7"/><path d="M158.505 201.254c-.176-6.148 3.337-9.836 3.161-19.673-.175-13.876 2.108-26.522 2.284-26.522-.879 0-3.689-.878-3.338-2.459.352-1.23 1.581-1.932 1.581-4.391.176-2.811 2.108-3.689 2.108-3.689-2.81 0-5.269.703-5.445 3.513-.176 2.459-1.23 2.986-1.581 4.391-.351 1.581 1.23 2.459 2.108 2.459 0 0 .702.176 1.932.176-2.635 17.389-6.85 49.005-6.85 49.005-.352 2.284 2.107 4.567 4.391 4.567h4.742c-1.756-.527-4.918-5.445-5.093-7.377z" fill="#fff"/><path d="M203.646 158.923l-1.405-10.714c-.176-2.108-1.757-3.689-3.865-3.689h-34.075c-2.81 0-5.269.703-5.445 3.513-.176 2.459-1.23 2.986-1.581 4.391-.351 1.581 1.23 2.459 2.108 2.459-.176.176 9.485.527 19.497.703 5.62 0 11.241.175 14.754 0 2.81-.176 3.162-1.23 3.688-2.986.352-1.757 1.054-3.689 1.933-4.216M195.215 159.977c0 11.417-2.284 45.844-2.284 45.844" stroke="#162D27" stroke-width="1.697" stroke-miterlimit="10" stroke-linecap="round" stroke-linejoin="round"/><path d="M184.5 178.771a8.245 8.245 0 01-8.255 8.255 8.245 8.245 0 01-8.255-8.255 8.245 8.245 0 018.255-8.255c4.391 0 8.255 3.688 8.255 8.255z" fill="#E45865"/><path d="M161.139 158.045c-2.634 16.159-6.674 46.019-6.674 46.019-.352 2.284 2.107 4.567 4.391 4.567h46.897" stroke="#162D27" stroke-width="1.697" stroke-miterlimit="10" stroke-linecap="round" stroke-linejoin="round"/><path d="M226.831 170.164l-2.986 36.008c-.176 1.405-1.405 2.459-2.81 2.459h-14.93c-1.23 0-2.284-.878-2.284-2.108l-2.986-36.359" fill="#EBF5F0"/><path d="M202.241 182.108l.878 11.944 21.429.176.702-12.295-23.009.175z" fill="#E5D9C7"/><path d="M203.646 169.813s1.054 11.066 1.054 11.768c0 .703.175 11.417.878 12.471.702 1.23.878 10.89 1.756 11.593.879.703 2.635 2.459 2.811 2.459.175 0-4.216.878-5.27-.351-1.054-1.23-3.337-37.764-3.337-37.764l2.108-.176z" fill="#fff"/><path d="M228.061 169.462l-1.405-2.811-2.284-4.918-21.253-.175-2.108 5.445-1.405 2.459h28.455z" fill="#F8D872"/><path d="M206.281 161.733s-1.23 1.757-.527 2.459c.702.527-.352 2.459-.352 2.459l-1.054 2.284-4.039.175 1.229-2.634 1.757-5.094 2.986.351z" fill="#fff"/><path d="M226.831 170.164l-2.986 36.008c-.175 1.405-1.405 2.459-2.81 2.459h-14.93c-1.23 0-2.284-.878-2.284-2.108l-2.81-35.129M222.44 166.651h-21.253l-1.581 2.811h28.455l-1.405-2.811M201.362 166.3l1.581-3.688c.176-.527.703-.879 1.405-.879h19.146c.527 0 1.054.352 1.405.879l1.932 4.039M204.173 181.581h21.077M224.372 194.579H203.47" stroke="#162D27" stroke-width="1.697" stroke-miterlimit="10" stroke-linecap="round" stroke-linejoin="round"/><path d="M220.859 184.567s-.527 2.108 0 3.689 0 3.689 0 3.689M217.698 184.216s-.703 2.81.175 4.04c.878 1.229-.175 2.986-.175 2.986" stroke="#162D27" stroke-width="1.697" stroke-miterlimit="10" stroke-linecap="round" stroke-linejoin="round"/><path d="M164.828 155.41s26.171 2.811 27.576 2.635c3.513-.176 3.865-3.162 3.865-3.162l-31.441.527zM206.983 169.637l18.618 2.459c.879.176 1.581-.526 1.406-1.405v-1.054h-20.024z" fill="#162D27"/><path d="M171.327 181.757c1.229-.351 2.283-1.054 2.986-2.108.702-1.054 1.054-2.283.878-3.513 0-.527-.351-1.229-.703-1.58-.351-.352-1.054-.703-1.581-.352-.702.352-1.053 1.23-.878 2.108.176.878.703 1.405 1.405 1.756a2.602 2.602 0 002.284 0c.527-.175.878-.526 1.405-.702 1.054-.351 2.283.176 2.635 1.054.175.351 0 .878-.352 1.054" stroke="#162D27" stroke-width="1.697" stroke-miterlimit="10" stroke-linecap="round" stroke-linejoin="round"/><path d="M202.065 188.08s-.703 8.08-.351 10.012c.351 1.757-1.23 10.188-1.23 10.188l3.513.175-1.932-20.375z" fill="#162D27"/><path d="M317.039 229.493c-.338-.506-1.013-1.181-1.856-1.687-1.856-1.181-3.881-1.012-4.893.844 0 .168-.337.843-.337.843-1.181-.843-3.206-2.362-5.568-2.699-1.855-.337-3.88 1.518-5.061 3.205-.169.844-2.531 3.881-2.531 4.049l1.519-.168c1.518 0 3.037.675 3.711 1.855 1.013 1.688-.506 5.905-2.361 5.905h10.797c2.699-.337 4.386-1.181 6.073-3.543 1.856-2.193 2.025-6.242.507-8.604z" fill="#E45865"/><path d="M302.361 235.904c-.675-1.349-2.194-1.856-3.712-1.856-.506 0-1.012 0-1.518.169.506-.506 2.53-2.868 2.53-5.061.169-1.856-.843-3.88-2.53-4.893-1.688-1.012-4.049-.675-5.23 1.013.674-3.712 1.181-7.761-.675-10.967-.844-1.518-2.7-2.868-4.555-2.361-1.013.337-1.856 1.349-2.362 2.361-2.362 4.556-1.519 9.954-.675 14.847-1.181-2.531-4.218-4.555-6.58-3.206-1.856 1.013-2.53 3.206-2.699 5.23-.169 2.362 1.012 8.098 1.856 10.292l23.788-.169c2.193 0 3.374-3.712 2.362-5.399z" fill="#62997E"/><path d="M289.539 215.153c1.687 2.868.843 7.086.843 10.291 0 1.687 1.013 1.856 1.856 1.35 1.181-.675 2.362-1.181 3.543-.844 2.362.507 2.699 3.037 2.531 4.893 0 1.012-.506 2.024-1.013 3.037 1.35-1.35 2.194-3.037 2.362-4.724.169-1.856-.843-3.88-2.53-4.893-1.687-1.012-4.049-.675-5.23 1.013.675-3.712 1.181-7.761-.675-10.967-.844-1.518-2.699-2.868-4.555-2.361-1.012.337-1.856 1.349-2.362 2.361.337-.168.506-.337.843-.506 1.856-.506 3.375-.168 4.387 1.35z" fill="#fff"/><path d="M297.299 234.048s0-.168.169-.168c-.169.168-.337.168-.169.168-.168 0-.168 0 0 0zM306.072 221.733c-.337 0 1.012 5.23 3.712 4.555 2.53-.506-1.181-4.893-3.712-4.555z" fill="#62997E"/><path d="M306.072 221.395s1.35 5.399 3.881 4.724c1.349-.337.843-2.362-.675-3.543-1.35-1.012-3.206-1.181-3.206-1.181zM291.394 214.31c1.856 3.205 1.35 7.254.675 10.966 1.181-1.519 3.543-1.856 5.23-1.013 1.687 1.013 2.531 3.037 2.531 4.893-.169 1.856-1.181 3.711-2.531 5.061 1.856-.506 4.218 0 5.23 1.687 1.012 1.687.675 4.555-2.362 5.736M283.465 228.818c-.843-5.061-1.518-9.785.844-14.171 1.012-1.856 2.193-3.037 4.555-2.362" stroke="#162D27" stroke-width="1.697" stroke-miterlimit="10" stroke-linecap="round" stroke-linejoin="round"/><path d="M275.704 238.097c-.843-2.193-1.349-4.723-1.18-7.085.168-2.025.843-4.387 2.699-5.23 2.53-1.181 6.242 2.193 7.254 4.723M301.517 228.312c.506-1.518 2.362-2.024 3.88-1.518 1.519.506 2.531 1.518 3.881 2.362 1.181.843 2.699 1.687 4.217 1.349M310.121 229.493c-.168-2.53 1.012-5.736 3.712-6.579" stroke="#162D27" stroke-width="1.697" stroke-miterlimit="10" stroke-linecap="round" stroke-linejoin="round"/><path d="M273.174 241.64h44.539v30.199l-45.045-.506.506-29.693z" fill="#F8D872"/><path d="M312.146 227.131c2.193-.674 4.217 1.181 5.061 2.362 1.518 2.362 1.35 6.411-.337 8.773-1.519 2.362-3.206 3.037-6.074 3.543" stroke="#162D27" stroke-width="1.697" stroke-miterlimit="10" stroke-linecap="round" stroke-linejoin="round"/><path d="M317.544 271.839H275.03c-1.35 0-2.531-1.181-2.531-2.53v-25.138c0-1.35 1.181-2.531 2.531-2.531h42.683c1.35 0 2.531 1.181 2.531 2.531v25.138c-.169 1.518-1.181 2.53-2.7 2.53zM287.683 246.027v23.619M288.189 224.601c.844 1.012.844 2.53.675 3.711-.169 1.35-.506 2.531-.338 3.881.338 2.024 1.856 3.542 3.543 4.555 1.181.675 2.531 1.518 2.868 2.868M276.211 240.965c-.506-1.855-1.013-4.217.506-5.567 3.037-2.699 6.242 1.012 7.423 3.205.506-.674 2.531-4.386 6.411 1.519" stroke="#162D27" stroke-width="1.697" stroke-miterlimit="10" stroke-linecap="round" stroke-linejoin="round"/><path d="M310.121 250.413h-6.58a1.871 1.871 0 01-1.855-1.856c0-1.012.843-1.855 1.855-1.855h6.58c1.012 0 1.856.843 1.856 1.855-.169 1.013-.844 1.856-1.856 1.856z" stroke="#162D27" stroke-width="1.697" stroke-miterlimit="10" stroke-linecap="round" stroke-linejoin="round"/><path d="M68.573 131.698l3.514 9.836c1.58 4.918 6.147 8.08 11.24 8.08h4.392c4.918 0 9.31-2.986 11.066-7.553l4.391-11.066c.527-1.405-.703-2.986-2.284-2.986h-29.86c-1.58 0-2.985 1.406-2.634 2.986 0 .352 0 .527.175.703z" fill="#E45865"/><path d="M74.37 141.358l-3.513-9.836c0-.175-.176-.527-.176-.702-.175-1.23 1.23-2.284 2.284-2.811h-1.932c-1.581 0-2.986 1.406-2.635 2.986 0 .176.175.527.175.703l3.514 9.836c1.58 4.918 6.147 8.08 11.24 8.08h4.392c.703 0-1.405-.176-1.405-.176-4.918 0-10.188-3.161-11.944-8.08z" fill="#fff"/><path d="M101.244 128.009h-2.986c.527 0 1.054.176 1.58.527 1.406.703 2.108 2.635 1.406 4.04l-4.04 9.309c-1.756 4.567-7.377 7.729-12.295 7.729h2.81c4.918 0 9.31-2.986 11.066-7.553l4.391-11.066c.703-1.405-.351-2.986-1.932-2.986z" fill="#162D27"/><path d="M95.974 107.459l-2.986 4.215-1.23 1.054 1.23-7.553c.527-4.567-2.283-10.714-8.606-10.714-4.216 0-10.363 3.161-8.607 12.119 1.932 9.485 4.567 21.078 4.567 21.078l8.958.176 1.23-6.148c2.634-2.108 11.065-9.134 11.768-10.89 1.932-4.04-2.108-7.729-6.324-3.337z" fill="#62997E"/><path d="M86.138 94.636c-.527-.175-1.054-.175-1.756-.175-4.216 0-10.363 3.161-8.607 12.119 1.932 9.485 4.567 21.078 4.567 21.078H82.8c-.351-1.23-2.635-11.944-4.567-20.902-1.58-8.431 3.864-11.768 7.904-12.12z" fill="#fff"/><path d="M90.53 120.457l-1.23 6.674M80.342 127.658s-2.46-11.593-4.567-21.078c-1.932-8.958 4.391-12.12 8.607-12.12 6.147 0 9.133 6.148 8.606 10.715l-1.58 9.134M68.573 131.698l3.514 9.836c1.58 4.918 6.147 8.08 11.24 8.08h4.392c4.918 0 9.31-2.986 11.066-7.553l4.391-11.066c.527-1.405-.703-2.986-2.284-2.986h-29.86c-1.58 0-2.985 1.406-2.634 2.986 0 .352 0 .527.175.703zM74.194 100.081l3.338 1.581M83.855 92.529l.175 3.864M90.88 100.608l3.338-1.58M83.504 103.946l1.053 1.932M75.6 111.499l3.337-1.054M85.084 114.309l1.054 2.81M77.356 119.93l3.689-.352M85.611 122.389l1.054 1.58M73.14 132.049h27.05M91.759 112.552l4.215-5.093c2.108-2.459 4.04-2.459 5.445-1.581 1.054.527 1.581 1.756 1.757 2.635.176 1.756-.527 3.512-1.932 4.566l-10.539 8.783M96.501 104.121l1.405 3.865M95.272 115.363l1.756 3.513M100.892 109.215l4.392-.527" stroke="#162D27" stroke-width="1.697" stroke-miterlimit="10" stroke-linecap="round" stroke-linejoin="round"/><path d="M107.04 250.435l-.878 5.269s6.85 2.108 11.593-.702c4.742-2.811 4.918-5.797 4.918-5.797s-3.162-.878-4.567-.878c-1.23 0-3.162 3.337-4.567 3.337-1.581 0-3.864-1.756-4.742-1.756-.703.176-1.757.527-1.757.527z" fill="#E5D9C7"/><path d="M120.916 234.627c-4.391-4.391-5.796-4.567-11.241-5.094-5.27-.527-10.715 4.742-10.715 4.742 2.635 1.757 5.445 5.621 6.675 9.485 1.054 3.162 1.054 6.148 1.054 6.148s2.459.527 4.918 1.581c2.459 1.054 4.215-2.284 5.269-2.986 1.054-.703 4.04 1.054 6.148-.176 2.459-1.229 2.283-9.309-2.108-13.7zm-8.255 6.674c-1.757 0-2.986-.702-2.986-1.58 0-.879 1.405-1.581 2.986-1.581 1.581 0 2.986.702 2.986 1.581 0 .878-1.405 1.58-2.986 1.58z" fill="#E45865"/><path d="M87.016 229.357c-10.538 0-20.199 9.31-20.199 19.848 0 10.539 9.485 17.741 20.2 18.268 16.159 1.054 19.145-8.607 19.145-19.146 0-10.363-8.607-18.97-19.146-18.97zm1.406 21.956c-2.986 0-5.797-2.635-5.797-4.742 0-2.108 2.635-3.162 5.62-3.162 2.987 0 5.27 3.162 5.27 5.269 0 2.108-2.283 2.635-5.093 2.635z" fill="#E5D9C7"/><path d="M102.473 238.315c-6.674-9.66-20.375-11.065-27.576-4.742-2.108 1.756-5.972 4.918-5.797 7.904.176 2.986.703 11.417 4.216 12.998 3.513 1.581 5.62-1.23 7.728.175 2.108 1.581 1.933 4.392 5.621 4.392 3.689 0 6.675-1.23 9.134.175 2.459 1.405 5.445-2.634 7.026-3.688 1.58-1.23 3.161-1.581 3.161-1.581s1.757-8.256-3.513-15.633zm-14.051 12.998c-2.986 0-5.621-2.81-5.621-4.918s2.635-2.635 5.62-2.635c2.987 0 5.27 1.757 5.27 3.689 0 2.108-2.459 3.864-5.27 3.864z" fill="#F8D872"/><path d="M67.344 248.327c-.878-.702-2.81.176-5.27.351-2.283.176-1.053-1.58-2.458-2.986-1.23-1.405-1.581.703-4.743.352-3.161-.352-2.81-4.216-2.634-5.972-.527 1.229-.879 2.459-.879 3.688 0 5.621 5.621 10.363 12.647 10.363s3.337-5.796 3.337-5.796z" fill="#E5D9C7"/><path d="M61.196 231.289c-7.728 1.933-8.43 6.148-8.782 8.958-.351 1.757-.527 5.445 2.635 5.797 3.161.351 3.513-1.23 4.742.175 1.23 1.406.703 2.811 2.986 2.459 2.284-.175 3.689-1.053 4.567-.351 0 0 1.405-6.148 1.23-6.148-.176 0-5.972.352-6.5-2.107-.175-1.054 3.865-2.108 5.094-2.108 1.23 0 2.46.351 2.46.351l2.459-2.459 2.986-2.986c.175 0-5.972-3.688-13.877-1.581z" fill="#FFCBC1"/><path d="M106.689 249.557c0 10.714-6.499 18.267-17.213 18.794-12.998.702-22.132-7.026-22.483-17.74-.352-12.647 8.782-20.727 19.672-20.727s20.024 8.958 20.024 19.673z" stroke="#162D27" stroke-width="1.697" stroke-miterlimit="10" stroke-linecap="round" stroke-linejoin="round"/><path d="M83.504 242.355s-2.635 4.918 1.756 8.08c3.337 2.283 8.255.527 9.836-2.108M70.154 246.571s-.527 5.972 3.689 8.079c2.635 1.23 4.04-.702 7.377.527 1.58.527 1.58 5.094 8.255 3.689 4.743-1.054 4.567.703 7.378 1.054 2.81.351 4.918-3.513 4.918-3.513" stroke="#162D27" stroke-width="1.697" stroke-miterlimit="10" stroke-linecap="round" stroke-linejoin="round"/><path d="M82.977 244.99s3.688-2.986 7.201-1.054c3.513 1.932 2.986 5.445 2.986 5.445M75.424 232.87c-15.106-6.323-25.996 3.162-23.361 13.701 2.283 9.309 14.052 8.255 15.281 7.904M62.25 240.072s.703 2.634 6.324 1.405M63.304 238.491c.703-.351 2.986-1.581 6.148 0" stroke="#162D27" stroke-width="1.697" stroke-miterlimit="10" stroke-linecap="round" stroke-linejoin="round"/><path d="M53.82 243.585s-.352 2.81 2.458 2.634c2.81-.175 2.81-1.054 3.865.527 1.053 1.581 1.58 2.459 4.215 1.405 2.635-1.053 2.635.879 2.635.879M99.312 233.749s4.742-4.567 11.241-4.216c9.309.351 14.052 7.377 13.876 14.403-.175 6.85-4.918 12.12-10.539 12.998-5.093.878-8.079-.878-8.079-.878" stroke="#162D27" stroke-width="1.697" stroke-miterlimit="10" stroke-linecap="round" stroke-linejoin="round"/><path d="M113.715 237.788c-2.284-1.053-5.972 1.23-3.513 3.162 1.229.878 4.918.703 5.62-1.229M123.902 247.625c-.175.351-3.161 1.58-4.742.702-1.757-.878-2.986 1.054-3.864 1.757-.879.878-2.46 1.932-4.567.351-2.108-1.581-3.689-.527-3.864-.527M75.424 244.639l2.108-1.757M80.342 235.154l1.932 1.405M90.88 236.208l2.635-1.054M97.555 242.531l2.284-.351M98.61 249.03l1.229 1.229M56.103 239.018l2.108 1.054M63.656 233.222l-.703 1.932M69.1 233.397l.879.878M107.567 234.451l2.108-1.054M117.755 236.032l1.054 1.405M111.783 244.112l-.879 1.229" stroke="#162D27" stroke-width="1.697" stroke-miterlimit="10" stroke-linecap="round" stroke-linejoin="round"/></g><defs><clipPath id="clip0"><path fill="#fff" d="M0 0h376v354H0z"/></clipPath></defs></svg>