<svg width="376" height="356" fill="none" xmlns="http://www.w3.org/2000/svg"><g clip-path="url(#clip0)"><circle cx="188.5" cy="178.5" r="174.5" fill="#F4EDE3" fill-opacity=".5"/><path d="M287.493 168.751c22.668 11.211 83.478-30.555 67.759-83.319-10.166-34.147-30.084 15.803-4.004 8.096 26.079-7.707 29.207-40.822 1.654-60.898" stroke="#B6E1F3" stroke-miterlimit="10"/><path d="M101.695 292.274s19.214-31.789 19.917-63.734c.781-39.834-135.904 5.858-112.316 36.007 24.369 31.242 84.588-86.229 21.557-100.991" stroke="#F8D872" stroke-miterlimit="10"/><path d="M314.533 10.313a4.921 4.921 0 100-9.843 4.921 4.921 0 000 9.843z" stroke="#62997E" stroke-miterlimit="10"/><path d="M254.263 33v14M261.263 40.036h-14" stroke="#F8D872" stroke-miterlimit="10"/><path d="M41.788 105.836a4.217 4.217 0 100-8.435 4.217 4.217 0 000 8.435z" stroke="#E45865" stroke-miterlimit="10"/><path d="M41.553 48.82s-16.636 7.42-9.685 15.854c6.952 8.436 42.256.391 35.304-7.576-7.186-8.279-27.337 20.776-8.045 25.385" stroke="#62997E" stroke-miterlimit="10"/><path d="M112 100.943H60c-1.1 0-2-.9-2-2v-8c0-1.1.9-2 2-2h52c1.1 0 2 .9 2 2v8c0 1.1-.9 2-2 2z" fill="#D6EECC"/><path d="M63 94.943h28.3" stroke="#162D27" stroke-width="1.5" stroke-miterlimit="10"/><path d="M112 100.943H60c-1.1 0-2-.9-2-2v-8c0-1.1.9-2 2-2h52c1.1 0 2 .9 2 2v8c0 1.1-.9 2-2 2z" stroke="#162D27" stroke-width="1.5" stroke-miterlimit="10" stroke-linecap="round" stroke-linejoin="round"/><path d="M112 122.843H60c-1.1 0-2-.9-2-2v-8c0-1.1.9-2 2-2h52c1.1 0 2 .9 2 2v8c0 1.1-.9 2-2 2z" fill="#D6EECC"/><path d="M63 116.843h28.3" stroke="#162D27" stroke-width="1.5" stroke-miterlimit="10"/><path d="M112 122.843H60c-1.1 0-2-.9-2-2v-8c0-1.1.9-2 2-2h52c1.1 0 2 .9 2 2v8c0 1.1-.9 2-2 2z" stroke="#162D27" stroke-width="1.5" stroke-miterlimit="10" stroke-linecap="round" stroke-linejoin="round"/><path d="M112 144.443H60c-1.1 0-2-.9-2-2v-8c0-1.1.9-2 2-2h52c1.1 0 2 .9 2 2v8c0 1.1-.9 2-2 2z" fill="#EBF5F0"/><path d="M112 144.443H60c-1.1 0-2-.9-2-2v-8c0-1.1.9-2 2-2h52c1.1 0 2 .9 2 2v8c0 1.1-.9 2-2 2z" stroke="#162D27" stroke-width="1.5" stroke-miterlimit="10" stroke-linecap="round" stroke-linejoin="round"/><path d="M114 103.943a9 9 0 009-9 9 9 0 00-9-9 9 9 0 00-9 9 9 9 0 009 9z" fill="#fff"/><path d="M114 103.943a9 9 0 009-9 9 9 0 00-9-9 9 9 0 00-9 9 9 9 0 009 9z" stroke="#162D27" stroke-width="1.5" stroke-miterlimit="10" stroke-linecap="round" stroke-linejoin="round"/><path d="M109.8 94.943l2.9 2.9 6.2-6.6" stroke="#162D27" stroke-width="1.5" stroke-miterlimit="10"/><path d="M114 125.843a9 9 0 100-18 9 9 0 000 18z" fill="#fff"/><path d="M114 125.843a9 9 0 100-18 9 9 0 000 18z" stroke="#162D27" stroke-width="1.5" stroke-miterlimit="10" stroke-linecap="round" stroke-linejoin="round"/><path d="M109.8 116.843l2.9 2.9 6.2-6.6" stroke="#162D27" stroke-width="1.5" stroke-miterlimit="10"/><path d="M318.002 151.18h-49.988c-3.28 0-6.014-2.655-6.014-6.014v-39.209c0-3.28 2.656-6.014 6.014-6.014h49.988c3.28 0 6.014 2.656 6.014 6.014v39.209c0 3.281-2.734 6.014-6.014 6.014z" fill="#fff"/><path d="M272.857 109.394h21.088M272.857 115.408h30.617M272.857 123.765h40.224M272.857 129.779h30.617M272.857 135.716h36.631M272.857 141.73h39.053" stroke="#22594B" stroke-width="1.5" stroke-miterlimit="10"/><path d="M318.002 151.18h-49.988c-3.28 0-6.014-2.655-6.014-6.014v-39.209c0-3.28 2.656-6.014 6.014-6.014h49.988c3.28 0 6.014 2.656 6.014 6.014v39.209c0 3.281-2.734 6.014-6.014 6.014z" stroke="#22594B" stroke-width="1.5" stroke-miterlimit="10" stroke-linecap="round" stroke-linejoin="round"/><path d="M97.633 179.021s4.843-12.653 17.34-18.198c8.513-3.749 26.399-7.03 63.734-3.437 9.529.937 43.895 2.187 43.895 2.187s14.294.078 26.947 7.108c12.653 7.029-4.218 57.642-4.218 57.642l-135.591 1.874-12.107-47.176z" fill="#EBF5F0"/><path d="M242.363 194.018l18.902 100.522 25.306-15.153s-.625-1.171-4.608-24.603c-3.359-19.761-7.42-38.741-8.748-43.661-1.016-3.671-1.484-6.561-2.656-11.013-3.202-11.95-7.732-27.571-14.605-32.726-11.716-8.904-25.619-7.264-27.962-7.655-2.343-.39 14.371 34.289 14.371 34.289z" fill="#EBF5F0"/><path d="M277.354 270.952c-.312-1.797-7.498-2.109-7.498-2.109l-3.905 7.967s11.95-2.656 11.403-5.858z" fill="#FFCBC1"/><path d="M264.936 194.096c4.998 23.197 16.87 93.336 16.87 93.336l6.249-3.046s-2.109-6.171-6.092-29.602c-3.359-19.761-7.42-38.741-8.748-43.661-1.016-3.671-1.484-6.561-2.656-11.013-3.202-11.95-8.904-28.118-15.777-33.273-11.716-8.904-24.447-6.717-26.79-7.108-1.328-.234 8.669.859 17.105 4.765 1.25.546 2.499 1.327 3.749 2.265 6.951 4.998 13.122 13.434 16.09 27.337z" fill="#fff"/><path d="M165.82 149.107s-13.2-.937-17.652 14.293c-.859 3.046-4.687 32.648-9.529 46.864-1.484 4.374-3.203 8.591-5.155 10.856-2.656 2.968-6.405 3.671-6.405 3.671L112.005 344.84l15.074 4.16s35.382 6 62.875 6c27.493 0 73.029-10.473 73.029-10.473l-4.608-31.242s-8.826-86.151-9.607-91.696c-3.203-20.932-10.154-33.664-12.966-39.131-4.53-8.982-13.746-25.853-18.042-28.431-6.795-4.061-9.529-2.03-9.529-2.03v6.326s5.077 9.451 9.216 21.089c2.266 6.405 7.499 26.165 7.499 26.165.156.781 1.093 4.14 1.093 4.14s-1.874.156-2.812.156l-33.273 1.015-29.211-.859v-20.62s.156-18.042 1.093-23.978c1.406-8.826 3.046-9.373 3.046-9.373l.938-6.951z" fill="#E45865"/><path d="M116.223 313.051l49.987-2.968.469-4.296 12.887-.937s3.281-4.374 2.031-5.78c-1.25-1.406-65.14 4.842-65.14 4.842l-.234 9.139z" fill="#162D27"/><path d="M177.301 277.669c.078 0 5.233-2.812 7.811-4.843 4.452-3.593 12.106-7.81 14.996-8.201 4.686-.547 7.811.547 7.811.547l-10.701 14.684-19.917-2.187z" fill="#FFCBC1"/><path d="M244.863 309.302l-61.157 2.187c-.781 0-1.64-.079-2.343-.391-3.593-1.562-3.046-4.061-1.641-6.795l40.303-76.544c1.093-2.109 3.28-3.436 5.702-3.436l62.797-1.094c2.343 0 3.827 2.499 2.733 4.53l-40.693 78.106c-1.093 2.109-3.28 3.437-5.701 3.437z" fill="#505458"/><path d="M244.863 309.302l-61.157 2.187c-.781 0-1.64-.079-2.343-.391-3.593-1.562-3.046-4.061-1.641-6.795l40.303-76.544c1.093-2.109 3.28-3.436 5.702-3.436l62.797-1.094c2.343 0 3.827 2.499 2.733 4.53l-40.693 78.106c-1.093 2.109-3.28 3.437-5.701 3.437z" fill="#505458"/><path d="M244.863 309.302l-61.157 2.187c-.781 0-1.64-.079-2.343-.391-3.593-1.562-3.046-4.061-1.641-6.795l40.303-76.544c1.093-2.109 3.28-3.436 5.702-3.436l62.797-1.094c2.343 0 3.827 2.499 2.733 4.53l-40.693 78.106c-1.093 2.109-3.28 3.437-5.701 3.437z" stroke="#162D27" stroke-width="1.5" stroke-miterlimit="10" stroke-linecap="round" stroke-linejoin="round"/><path d="M166.054 304.303c.078-.156 7.81-1.094 17.105-.469 15.152 1.094 24.603 3.437 30.774 2.031 5.701-1.25 16.87-2.968 18.901-4.374 1.25-.859 1.562-1.64 1.484-2.499-.078-.86-1.484-1.172-1.484-1.172s3.124-1.25 3.046-3.046c0-.781-.859-1.562-.859-1.562s4.14-1.094 3.827-3.359c-.234-1.484-9.294-1.328-9.294-1.328s4.764-.702 4.764-3.202c0-1.796-13.2-2.577-17.574-3.983-13.98-4.452-22.806-7.889-22.806-7.889l-25.072 6.092s.624 10.623.156 14.137c-.391 2.89-2.968 10.623-2.968 10.623z" fill="#FFCBC1"/><path d="M98.258 178.318c-2.265 3.515-6.404 12.107-10.466 24.213-3.046 8.904-5.858 20.073-8.982 30.618-5.077 16.948-10.388 34.757-11.716 46.55-.703 6.093 1.406 12.732 2.734 14.45 10.153 13.2 24.056 12.185 32.414 12.809 8.357.625 62.718.469 62.718.469s3.671-9.841 4.218-13.434c.703-4.843-.156-15.934-.156-15.934l-49.129-6.639s.469-8.435 2.578-18.198c2.421-11.326 5.233-22.963 6.248-28.978 1.484-8.513 0-17.027 0-17.027 1.172-9.919-5.858-27.493-14.683-32.179-6.327-3.359-13.981.547-15.778 3.28z" fill="#EBF5F0"/><path d="M175.895 99.432a10.716 10.716 0 01-1.015 5.467c2.031-2.343 3.593-5.546 3.28-8.904-.234-2.187.078-4.062.781-5.624-2.187 2.265-3.436 5.155-3.046 9.06zM233.069 102.009c1.249-.625 2.03-1.484 2.108-2.578.079-1.015.235-1.796.469-2.499-1.172 1.172-2.265 2.421-2.577 5.077z" fill="#505458"/><path d="M223.54 101.54s-2.343-2.89-5.546-4.061c-4.217-1.562-9.919-1.64-13.434-2.734-6.248-1.952-7.732-13.746-7.967-14.137-.234-.234-9.529.781-14.84 5.858 5.311-5.077 14.684-6.092 14.84-5.858.313.39 1.719 12.185 7.967 14.137 3.515 1.094 9.295 1.172 13.434 2.734 3.281 1.093 5.546 4.061 5.546 4.061l-.469 2.578.469-2.578z" fill="#FFCBC1"/><path d="M217.994 97.4c-4.218-1.561-9.919-1.64-13.434-2.733-6.249-1.952-7.733-13.746-7.967-14.137-.234-.234-9.529.781-14.84 5.858-2.421 2.343-4.061 5.467-3.593 9.685.391 3.827-1.718 7.498-4.139 9.841-1.484 1.406-4.609 2.734-4.921 2.812-6.014-4.842-7.967-3.28-9.998-2.187-1.562.859-1.952 3.281-1.874 5.624 0 1.328.156 2.655.312 3.515.391 2.733 2.265 6.639 5.39 8.826.937.624 2.108 1.093 3.28 1.327.234 3.203.547 8.514.391 14.372-.235 8.123-1.016 15.23-3.437 21.791-.547 1.406 2.656 8.201 9.295 12.575 6.951 4.687 17.73 8.826 19.057 8.592 5.936-1.094 17.027-13.747 17.027-13.747l-.078-12.418.078-6.093c1.328-1.015 2.5-2.265 3.593-3.827 5.78-8.201 8.045-24.291 8.045-24.291l3.124-18.667.469-2.577c-.234 0-2.499-2.968-5.78-4.14z" fill="#FFCBC1"/><path d="M238.38 81.936c-2.265-1.875-4.608-3.046-4.843-6.952-.156-2.968 1.172-7.888-.625-10.622-3.983-6.326-6.248-8.123-15.386-7.81-3.984.156-8.905 1.327-13.044.624-5.389-1.015-8.279-4.452-11.716-5.78-13.747-5.154-21.713 3.203-21.713 3.203s-21.011 2.343-21.558 22.65c-.078 2.734 1.563 9.295 1.25 13.2-.39 4.843-1.562 3.75-2.031 9.06-.078.782 0 2.578.938 4.609 1.327 2.734 3.749 6.014 7.342 8.123 0-2.343.312-4.765 1.874-5.624 2.031-1.171 4.062-2.733 9.998 2.187.312-.078 3.514-1.406 4.92-2.812 2.422-2.421 4.53-6.092 4.14-9.84-.391-4.219 1.172-7.343 3.593-9.686 5.311-5.077 14.684-6.092 14.84-5.858.312.39 1.718 12.185 7.967 14.137 3.514 1.094 9.294 1.172 13.434 2.734 3.202 1.171 5.545 4.061 5.545 4.061l-.468 2.578c3.749-.234 11.95-1.094 12.106-4.686.313-4.609 2.499-5.468 4.296-7.577 1.796-2.109 3.124-6.56-.859-9.92z" fill="#505458"/><path d="M238.38 81.936c-2.265-1.875-4.608-3.046-4.843-6.952-.156-2.968 1.172-7.888-.625-10.622-3.983-6.326-6.248-8.123-15.386-7.81-3.984.156-8.905 1.327-13.044.624-5.389-1.015-8.279-4.452-11.716-5.78-13.747-5.154-21.713 3.203-21.713 3.203s-13.356 1.484-19.058 12.419c6.326-7.889 19.995-11.013 19.995-11.013s6.092-8.045 19.37-1.797c4.843 2.266 6.092 5 11.482 6.015 4.139.78 8.435-.079 12.418-.235 9.217-.312 13.2 2.265 15.387 7.81 1.172 3.047.547 6.171.703 9.217.235 3.984 3.827 5.702 6.093 7.655 2.811 2.343 1.718 6.014 1.093 8.2.312-.312.625-.624.859-.937 1.953-2.265 2.968-6.639-1.015-9.997z" fill="#fff"/><path d="M223.462 102.009s-3.281 20.464-4.687 26.165c-2.89 12.107-6.014 27.259-24.291 26.556-11.481-.468-19.76-6.795-23.822-24.603M208.153 151.138c-.156 4.061-.156 13.824.234 17.808" stroke="#162D27" stroke-width="1.5" stroke-miterlimit="10" stroke-linecap="round" stroke-linejoin="round"/><path d="M211.043 165.665c-4.843 8.436-18.277 18.746-20.62 17.73-6.717-2.89-20.151-7.732-25.541-16.324-.546-.859-1.562-2.89-1.64-4.686-.078-2.5.859-4.687.859-4.687 2.734-7.966 3.125-23.587 1.875-31.242M156.134 111.46s-2.889-2.031-5.701-5.858c-2.578-3.593-1.484-8.748-.156-12.028a12.275 12.275 0 00.468-7.108c-.625-2.89-1.328-6.873-1.093-10.622.625-9.139 6.404-15.934 14.918-19.37 3.515-1.406 6.092-1.719 6.092-1.719s5.858-6.092 16.246-5.077c8.436.781 11.247 9.139 24.76 7.577 4.139-.47 10.153-2.578 16.48 1.718 11.169 7.576 1.562 15.387 8.045 21.088 2.265 2.031 5.545 4.374 5.155 8.28-.391 4.452-6.171 6.795-5.39 8.357" stroke="#162D27" stroke-width="1.5" stroke-miterlimit="10" stroke-linecap="round" stroke-linejoin="round"/><path d="M167.382 72.798c-5.624 3.827-4.687 8.2-7.342 12.184-2.812 4.296-3.749 8.28-2.421 13.2M276.105 223.229c-3.749-17.964-7.733-33.663-12.263-43.661-1.484-3.202-3.358-6.873-5.545-9.529-4.921-5.702-11.716-8.904-19.449-9.607-5.858-.547-11.559-1.015-14.605-1.015M285.165 285.636c.156-5.78-1.562-17.34-4.139-37.96M146.059 155.512c-7.967-.157-22.885 1.796-30.149 4.842-8.045 3.359-13.903 9.841-17.105 15.543M173.63 56.552c1.25-1.875 2.109-2.5 4.374-2.734" stroke="#162D27" stroke-width="1.5" stroke-miterlimit="10" stroke-linecap="round" stroke-linejoin="round"/><path d="M187.533 132.002c7.889 1.796 17.574 2.109 20.776 2.421 0 0-1.953 10.857-11.169 9.529-8.982-1.328-9.607-11.95-9.607-11.95z" fill="#162D27"/><path d="M206.356 134.345l-.781 2.031c-.234.546-.703 1.093-1.327 1.093-1.719 0-11.56-.625-15.934-2.265-.781-.312-.547-3.124-.547-3.124l18.589 2.265z" fill="#fff"/><path d="M189.095 137.938c9.373-.078 15.699 1.562 16.402 3.046 0 0-1.484 2.655-6.014 2.968-9.06.625-10.388-6.014-10.388-6.014z" fill="#E45865"/><path d="M203.545 115.131c.546 3.983 1.952 10.388 1.015 12.653-1.328 3.124-7.029 1.328-8.357.391M207.059 138.172s-2.108 6.483-9.841 5.78c-9.06-.781-9.607-11.95-9.607-11.95 7.889 1.796 17.574 2.109 20.776 2.421l-1.328 3.749zM217.291 107.945c-2.265-1.796-5.233-1.484-6.17-.781M195.968 104.899c-2.187-1.64-5.233-1.484-6.795-.39" stroke="#162D27" stroke-width="1.5" stroke-miterlimit="10" stroke-linecap="round" stroke-linejoin="round"/><path d="M191.985 117.474a2.343 2.343 0 100-4.686 2.343 2.343 0 000 4.686zM211.668 119.817a2.343 2.343 0 100-4.686 2.343 2.343 0 000 4.686z" fill="#162D27"/><path d="M194.094 77.171c2.265 2.344 3.124 5.624 4.061 8.748 1.016 3.125 2.344 6.327 5.155 8.045 1.484.86 3.203 1.25 4.921 1.484 3.124.469 6.249.625 9.217 1.719 2.577.937 4.92 2.655 6.639 4.842M191.673 81.311c-2.812.86-5.546 2.03-8.045 3.515-1.562.937-3.046 2.03-4.062 3.515-2.655 4.061-.703 9.685-2.89 13.98-1.327 2.656-3.905 4.296-6.404 5.858M210.418 77.562c.859 2.578 3.046 4.452 5.389 5.78 2.343 1.328 4.921 2.265 7.186 3.593 2.343 1.328 4.53 3.28 5.311 5.78.859 2.499.313 5.154-.234 7.732M225.883 74.204c2.656 3.592 6.405 6.482 7.967 10.7 1.718 4.452.546 9.529-1.328 13.98" stroke="#162D27" stroke-width="1.5" stroke-miterlimit="10" stroke-linecap="round" stroke-linejoin="round"/><path d="M176.754 145.514s2.422 8.67 13.356 11.247c8.123 1.875 17.965-1.562 17.965-1.562l-.078-3.749c0 .078-18.277 9.373-31.243-5.936z" fill="#162D27"/><path d="M165.82 149.107s-11.091-1.094-16.168 10.856c-6.483 15.309-7.498 61.313-20.62 64.36M225.883 209.795s-10.154-42.021-17.574-50.847" stroke="#162D27" stroke-width="1.5" stroke-miterlimit="10" stroke-linecap="round" stroke-linejoin="round"/><path d="M153.791 210.029c4.687-.078 20.698.859 39.209.625 16.637-.156 49.754-1.562 49.754-1.562" stroke="#162D27" stroke-width="1.5" stroke-miterlimit="10" stroke-linecap="round" stroke-linejoin="round"/><path d="M163.867 158.401c-1.172 2.5-2.499 9.686-2.656 13.2-.703 15.387-.234 37.335-.546 38.35M208.465 151.762c4.765-1.406 11.248 3.125 13.903 7.264 2.578 4.218 21.792 31.633 26.087 62.485.079.703.313 2.109.313 2.109M97.555 178.865c-3.593 7.889-6.795 10.701-16.324 46.082-2.968 11.091-11.872 33.039-14.215 54.44-.937 8.279 2.421 20.62 16.949 25.306 14.059 4.531 80.995 2.812 80.995 2.812s3.281-8.123 4.062-13.981c.781-6.092-.156-15.152-.156-15.152s-41.865-5.858-63.344-8.826M169.256 279.543c5.312-.625 6.093-1.64 9.998-2.968M166.444 304.147s10.935-.313 13.981-.469c4.14-.156 17.418 1.718 23.666 2.656 1.797.312 6.093.234 7.889-.079 5.311-.859 16.637-2.577 20.386-4.295.625-.313 2.03-1.016 2.187-1.875.156-.859-.313-1.25-.313-1.25M209.09 299.148c4.687.781 8.279.625 12.107.39 3.827-.234 8.435-.39 13.121-2.03.781-.313 2.344-1.563 1.406-2.968M209.715 286.651c4.999 1.484 17.652 2.187 23.822 1.874 2.734-.156 4.999.313 5.233 1.406.313 1.562-2.187 2.656-3.671 3.046-4.53 1.094-10.934 1.328-16.324 1.172-3.046-.078-6.014-.469-9.06-1.015M182.847 274.466c2.187-1.64 6.014-4.061 8.279-5.545 1.406-.937 7.186-4.062 9.451-4.374" stroke="#162D27" stroke-width="1.5" stroke-miterlimit="10" stroke-linecap="round" stroke-linejoin="round"/><path d="M194.094 274.076c4.218 1.562 15.543 5.78 19.995 6.717 4.452.937 9.138 1.64 13.669 2.265 4.217.547 6.014 1.015 6.482 2.421.391 1.172-2.421 2.578-5.623 3.124M129.969 203.156c1.953 12.497-2.812 30.774-6.405 44.208-2.655 9.841-3.671 21.557-3.671 22.26M154.963 276.341v-37.022l58.892.156M166.054 175.741c6.092 3.749 12.341 7.576 19.214 9.607M197.218 185.66c3.905-1.952 7.889-4.92 11.091-7.888M157.306 159.339c-3.437 6.014-3.28 33.819-5.389 40.38M222.524 170.273c2.812 8.045 5.39 16.168 7.811 24.369M249.471 203.078c0 2.577-1.484 4.921-2.812 7.108M170.35 109.82c-6.717-6.717-12.731-4.921-13.278.546-.547 5.468 2.187 13.2 7.264 15.387 2.343 1.016 5.389.703 7.263-.781M161.133 110.288c3.359-.234 5.311 2.422 5.858 2.734M175.817 82.951c-1.484 1.094-3.046 2.266-3.983 3.906-1.64 3.124-.469 6.951-1.172 10.466-.468 2.187-1.796 4.296-3.593 5.623M169.725 57.88c.781-.704 1.953-.938 2.89-.47M189.72 63.581c.234-.78.859-1.328 1.484-1.718 1.718-1.172 3.749-1.875 5.858-1.875" stroke="#162D27" stroke-width="1.5" stroke-miterlimit="10" stroke-linecap="round" stroke-linejoin="round"/><path d="M282.51 280.949c6.17 12.966-1.875 17.73-1.953 17.808-5.311 4.921-8.826 6.093-15.153 6.405-5.858.234-17.027 1.64-19.37.781-1.406-.469-1.952-1.171-2.109-1.953-.156-.781 1.172-1.484 1.172-1.484s-3.281-.39-3.749-2.187c-.156-.702.39-1.718.39-1.718s-4.295.078-4.608-2.265c-.156-1.484 8.592-3.749 8.592-3.749s-4.765.547-5.468-1.796c-.546-1.797 11.872-6.249 15.934-8.514 7.889-4.452 12.263-7.342 15.309-9.529 1.874-1.328 2.811-2.968 4.998-2.499 3.203.625 6.015 10.7 6.015 10.7z" fill="#FFCBC1"/><path d="M277.12 270.327s2.109 2.187 4.53 7.967c1.406 3.514 3.749 11.872 2.734 15.308-1.171 3.984-6.17 7.655-11.872 10.232-1.64.781-3.28.937-5.077 1.172-5.311.546-16.714 1.874-20.776 1.249-.703-.078-2.187-.468-2.577-1.171-.391-.781-.079-1.328-.079-1.328" stroke="#162D27" stroke-width="1.5" stroke-miterlimit="10" stroke-linecap="round" stroke-linejoin="round"/><path d="M268.294 297.351c-4.296 1.953-7.81 2.812-11.637 3.593-3.75.781-8.28 1.875-13.2 1.484-.859-.078-2.656-.859-2.187-2.499M264.311 285.479c-4.452 2.812-16.402 6.796-22.416 8.123-2.656.625-4.687 1.641-4.687 2.734.078 1.64 2.812 1.953 4.374 1.953 4.687-.078 10.857-1.562 16.09-3.203 2.89-.937 5.702-2.03 8.513-3.436M275.949 269.858c-2.109-1.171-5.858-.859-5.858-.859" stroke="#162D27" stroke-width="1.5" stroke-miterlimit="10" stroke-linecap="round" stroke-linejoin="round"/><path d="M272.434 272.045c-3.671 2.656-9.763 6.795-13.825 8.904-4.061 2.031-8.357 4.062-12.575 5.78-3.905 1.64-5.545 2.578-5.623 4.062-.078 1.171 3.046 1.796 6.326 1.484" stroke="#162D27" stroke-width="1.5" stroke-miterlimit="10" stroke-linecap="round" stroke-linejoin="round"/><path d="M198.937 275.716l24.368-45.692c.703-1.406 2.187-2.265 3.75-2.265l61.391-1.171M246.659 270.483c-3.046 3.124-7.264 4.53-9.451 3.124-2.187-1.328-1.484-4.92 1.562-8.045 3.046-3.124 7.264-4.53 9.451-3.124 2.109 1.328 1.484 4.921-1.562 8.045z" stroke="#162D27" stroke-width=".664" stroke-miterlimit="10" stroke-linecap="round" stroke-linejoin="round"/><path d="M119.347 271.655s.781-8.748 1.406-10.388c.625-1.719 2.187-11.091 2.187-11.091l2.968-11.873-1.875 33.82-4.686-.468z" fill="#162D27"/><path d="M111.614 344.84s4.765-27.806 4.765-37.101M257.75 306.099l5.077 36.71" stroke="#162D27" stroke-width=".664" stroke-miterlimit="10" stroke-linecap="round" stroke-linejoin="round"/><path d="M165.351 152.387s-1.25 2.109-1.64 3.437c-.313.937-1.172 5.78-1.172 5.78l.625-.157 1.562-5.936.625-3.124zM208.387 162.385l2.343 3.436-2.187 2.812-.156-6.248zM197.609 270.717l12.184 8.904-14.215-5.389 2.031-3.515z" fill="#162D27"/><path d="M344.838 294.852h-68.343c-3.28 0-6.014-2.656-6.014-6.014v-77.559c0-3.281 2.656-6.014 6.014-6.014h68.343c3.28 0 6.014 2.655 6.014 6.014v77.559a5.968 5.968 0 01-6.014 6.014z" fill="#fff" stroke="#162D27" stroke-width="1.5" stroke-miterlimit="10" stroke-linecap="round" stroke-linejoin="round"/><path d="M344.838 294.852h-68.343c-3.28 0-6.014-2.656-6.014-6.014v-77.559c0-3.281 2.656-6.014 6.014-6.014h68.343c3.28 0 6.014 2.655 6.014 6.014v77.559a5.968 5.968 0 01-6.014 6.014z" stroke="#162D27" stroke-width="1.5" stroke-miterlimit="10" stroke-linecap="round" stroke-linejoin="round"/><path d="M303.442 237.522h32.023M303.442 244.005h20.932" stroke="#162D27" stroke-width="1.5" stroke-miterlimit="10"/><path d="M306.878 266.031c-.312-1.875-5.857-1.484-5.857-1.484s2.265-2.89 1.562-4.843c-.703-1.952-6.483 4.999-6.483 4.999s-2.031 1.172-2.265 2.656c-.156.937-.703 3.749.703 5.779.625.938 7.576.547 7.576.547s3.983 0 4.608-.781c.625-.547.547-4.374.156-6.873z" fill="#F8D872"/><path d="M284.228 224.713c-1.094 0-6.092 2.578-6.092 2.578s1.249-4.062.703-4.531c-1.719-1.327-2.422-3.202-2.422-5.389 0-4.061 3.515-7.342 7.811-7.342 4.296 0 7.81 3.281 7.81 7.342 0 3.437-2.499 6.327-5.858 7.108" fill="#D6EECC"/><path d="M284.228 224.713c-1.094 0-6.092 2.578-6.092 2.578s1.249-4.062.703-4.531c-1.719-1.327-2.422-3.202-2.422-5.389 0-4.061 3.515-7.342 7.811-7.342 4.296 0 7.81 3.281 7.81 7.342 0 3.437-2.499 6.327-5.858 7.108" stroke="#162D27" stroke-width="1.5" stroke-miterlimit="10" stroke-linecap="round" stroke-linejoin="round"/><path d="M282.275 213.544c-.703.391-1.953.859-1.796 2.656.234 1.796 2.655 5.155 3.905 5.467 1.718.391 3.28-.234 3.593-1.25.312-1.015-.859-1.562-1.328-1.484-.234 0-1.25 1.328-2.031.703-.781-.547-2.343-2.968-1.952-3.515.468-.546 1.015-.312 1.171-1.015.156-.703-.859-2.031-1.562-1.562z" fill="#162D27"/><path d="M282.197 259.861v13.824c0 1.719 1.406 3.203 3.202 3.203h.625l.391 4.686c0 .469.547.625.859.391l5.546-4.999h21.791c1.718 0 3.202-1.406 3.202-3.203v-13.824c0-1.719-1.406-3.203-3.202-3.203h-29.212c-1.796 0-3.202 1.406-3.202 3.125zM339.761 230.337h-39.756c-1.718 0-3.202 1.406-3.202 3.202v13.825c0 1.718 1.406 3.202 3.202 3.202h32.492l5.546 4.999c.312.312.859.078.859-.391l.39-4.608h.547c1.719 0 3.203-1.406 3.203-3.202v-13.825c-.079-1.796-1.484-3.202-3.281-3.202z" stroke="#162D27" stroke-width="1.5" stroke-miterlimit="10" stroke-linecap="round" stroke-linejoin="round"/><path d="M301.958 265.953s-2.187-.078-2.187 1.25c0 1.327 1.796 1.171 1.796 1.171s-1.874.313-1.796 1.562c.078.859 1.25 1.172 1.25 1.172-1.328.859-1.094 2.421.39 2.499.859.078 4.686.235 5.311-.703.625-.937-.078-2.03-.078-2.03s.313-.469.391-1.172c0-.859-.235-1.484-.235-1.484s.235-.859.235-1.25c0-1.093-.938-1.952-1.953-2.03l-4.374-.157s2.578-2.577 1.875-4.53c-.703-1.952-1.953-.234-2.578.391-1.015 1.015-2.421 2.577-3.202 3.202-1.406 1.172-2.812 2.187-3.281 3.983 0 .079-.078 1.719-.078 1.953M298.756 273.92s-4.374.546-4.687-1.953M304.848 270.874s-3.437.312-3.984.078M304.926 268.296s-3.203.156-3.905.078" stroke="#162D27" stroke-width="1.5" stroke-miterlimit="10" stroke-linecap="round" stroke-linejoin="round"/></g><defs><clipPath id="clip0"><path fill="#fff" d="M0 0h376v356H0z"/></clipPath></defs></svg>